<?xml version="1.0" encoding="UTF-8"?><svg id="Camada_2" xmlns="http://www.w3.org/2000/svg" viewBox="0 0 567.39 571.49"><defs><style>.cls-1{fill:#d87351;}</style></defs><g id="Layer_1"><path class="cls-1" d="M498.04,86.9c49.57,47.14,75.63,132.14,68.06,221.81-8.08,95.62-51.16,176.28-118.17,221.32-105.37,70.84-239.94,40.18-330.74-12.12-1.3-.74-1.74-2.39-.99-3.68,.73-1.28,2.38-1.74,3.67-1,89.4,51.51,221.73,81.79,325.07,12.33,65.65-44.12,107.84-123.33,115.78-217.32,7.45-88.07-18-171.39-66.4-217.45-31.88-30.35-79.23-56-132.65-71.1,6.4,2.38,12.73,5.09,19.01,8.13,29.79,14.44,63.78,39.56,90.75,83.17,36.19,35.71,58.63,86.56,70.45,155.06,12.21,70.68,.19,135.62-33.81,182.9-28.5,39.61-70.8,64.75-122.3,72.66-9.05,1.39-17.92,2.47-26.66,3.27-5.05,1.38-10.21,2.65-15.47,3.78-114.48,24.87-217.6-9.07-282.9-93.13C20.59,383.88,.38,320.22,1.99,259.39-7.1,187.12,15.06,118.39,66.1,70.88,120.49,20.29,190.17,0,259.35,0c93.77,0,186.57,37.31,238.69,86.9ZM25.35,162.97c18.83-37.65,47.59-67.01,84.61-87.25,13.07-13.77,27.8-25.9,43.99-35.93C184.92,20.63,227.44,6.9,273.01,5.52,200.77,2.73,126.68,21.87,69.77,74.82,28.18,113.53,6.3,166.72,5.43,224.38c3.69-21.47,10.3-42.17,19.92-61.42ZM260.79,43.08c85.84,1.5,149.15,18.19,194.41,53.65-24.04-32.23-51.97-51.98-76.86-64.06C299.87-5.4,210.52,11.11,156.79,44.36c-10.95,6.78-21.2,14.6-30.73,23.33,37.93-17.05,83.3-25.49,134.73-24.61ZM58.84,339c37.76,105.31,148.84,175.98,258.35,164.39,1.49-.16,2.8,.92,2.96,2.39,.15,1.48-.91,2.8-2.39,2.96-111.94,11.86-225.4-60.35-263.99-167.92-30.59-85.29-10.81-184.18,44.41-251.76-29.2,19.11-52.22,44.73-68.02,76.3-14.34,28.68-21.84,60.69-22.78,93.58,3.64,28.83,12.38,58.25,26.33,87.08,44.35,91.55,155,188.57,324.41,173.55,114.79-31.67,169.01-125.71,153-266.62-6.77-59.42-22.97-104.09-43.41-137.68-45.08-44.56-111.96-65.16-207.02-66.8-57.2-1.02-106.85,9.77-146.73,31.21C52.24,145.7,27.44,251.49,58.84,339Zm444.86,106.81c33.15-46.09,44.82-109.59,32.88-178.83-9.71-56.23-26.71-100.3-52.85-133.71,15.33,31.24,27.18,70.29,32.73,119.07,15.12,132.93-31.18,225.06-131.06,263.89,49.84-7.78,90.73-32.12,118.29-70.42Zm-177.09,80.68c-1.04,0-2.08,0-3.12,0-152.37,0-252.65-91.5-294.61-178.13-8.63-17.8-15.29-35.81-20.03-53.8,5.37,48.43,24.43,96.85,56.12,137.65,50.22,64.64,123.31,99.02,206.79,99.02,17.84,0,36.17-1.56,54.85-4.75Z"/></g></svg>