<?xml version="1.0" encoding="UTF-8"?><svg id="Camada_2" xmlns="http://www.w3.org/2000/svg" viewBox="0 0 637.79 280.4"><defs><style>.cls-1{fill:#d87351;}</style></defs><g id="Layer_1"><g><path class="cls-1" d="M316.42,104.93V6.42c0-.38,.09-.77,.29-1.15,.19-.29,.46-.58,.79-.87,.33-.29,.8-.43,1.37-.43h34.48v5.62c0,1.35-.08,2.36-.22,3.03-.14,.68-.36,1.08-.65,1.23-.29,.14-.72,.22-1.3,.22h-22.94v30.58h21.64c0,4.43-.1,7.31-.29,8.66-.19,1.34-.82,2.02-1.88,2.02h-19.47v47.31c0,.38-.1,.77-.29,1.15-.39,.77-1.06,1.16-2.02,1.16h-9.52Z"/><path class="cls-1" d="M359.12,37.86c2.79-1.92,5.86-3.49,9.23-4.69,3.37-1.2,6.83-1.81,10.39-1.81s6.25,.53,7.79,1.59c1.53,1.06,2.31,2.55,2.31,4.47,0,.77-.1,1.81-.29,3.1-.2,1.3-.53,2.58-1.01,3.82-2.21-1.15-4.52-1.73-6.92-1.73-1.64,0-3.3,.27-4.98,.79-1.69,.53-3.2,1.37-4.55,2.52l-.14,56.69c0,.57-.07,1.03-.21,1.37-.14,.34-.58,.58-1.3,.72-.72,.15-1.9,.22-3.53,.22h-6.78V37.86Z"/><path class="cls-1" d="M394.89,39.3c0-.77,.12-1.52,.37-2.24,.24-.72,.65-1.32,1.22-1.8,1.25-.77,3.85-1.61,7.79-2.52,3.94-.92,8.66-1.37,14.14-1.37,6.25,0,10.79,1.3,13.63,3.9,2.84,2.6,4.26,7.16,4.26,13.7v20.12c0,4.18-.05,8.22-.14,12.12-.1,3.89-.19,7.57-.29,11.03-.09,3.46-.24,6.54-.43,9.23-1.92,1.16-4.57,2.26-7.93,3.32-3.37,1.06-7.4,1.59-12.11,1.59-2.59,0-5.14-.19-7.65-.58-2.5-.39-4.71-1.35-6.63-2.88s-3.46-3.77-4.61-6.71c-1.15-2.93-1.73-6.86-1.73-11.76s.56-9.04,1.66-12.12c1.11-3.07,2.55-5.48,4.33-7.21,1.78-1.73,3.82-2.88,6.13-3.46,2.31-.57,4.67-.86,7.07-.86,1.63,0,3.44,.12,5.41,.36,1.97,.24,3.68,.74,5.12,1.51v-11.4c0-3.36-.78-5.62-2.31-6.78-1.54-1.15-3.75-1.73-6.63-1.73-3.66,0-7.21,.31-10.67,.94-3.47,.62-6.25,1.37-8.37,2.23-.68-1.16-1.11-2.33-1.3-3.53-.19-1.2-.29-2.23-.29-3.1Zm29.57,31.59c-.97-.48-2.07-.82-3.32-1.01-1.25-.19-2.4-.29-3.46-.29-1.44,0-2.81,.17-4.11,.51-1.3,.34-2.43,1.03-3.39,2.09-.96,1.06-1.73,2.53-2.31,4.4-.58,1.88-.87,4.4-.87,7.57,0,2.6,.22,4.71,.65,6.35,.43,1.64,1.06,2.91,1.88,3.82,.81,.92,1.8,1.52,2.96,1.81,1.15,.28,2.45,.43,3.89,.43,1.63,0,3.15-.24,4.54-.72,1.39-.48,2.42-1.06,3.1-1.73,.09-1.15,.17-2.67,.21-4.55,.05-1.87,.1-3.87,.14-5.99,.05-2.11,.08-4.28,.08-6.49v-6.2Z"/><path class="cls-1" d="M448.11,36.28c1.44-.58,3.08-1.18,4.91-1.8,1.82-.62,3.75-1.15,5.77-1.58,2.01-.43,4.06-.79,6.13-1.08,2.07-.29,4.07-.43,5.99-.43,7.59,0,12.88,1.47,15.87,4.4,2.98,2.93,4.47,7.91,4.47,14.93v51.93c0,.57-.07,1.03-.21,1.37-.14,.34-.61,.58-1.38,.72-.77,.15-1.97,.22-3.6,.22h-6.92V54.16c0-4.62-.53-7.86-1.59-9.74-1.06-1.87-3.41-2.81-7.07-2.81-1.53,0-3.29,.22-5.27,.65-1.97,.43-3.77,1.08-5.4,1.95v58.42c0,.57-.08,1.03-.22,1.37-.14,.34-.6,.58-1.37,.72-.78,.15-1.92,.22-3.47,.22h-6.64V36.28Z"/><path class="cls-1" d="M539.13,37.86c0,.77-.1,1.73-.29,2.88-.19,1.16-.52,2.36-1.01,3.61-1.15-.67-2.65-1.27-4.47-1.8-1.83-.53-3.7-.79-5.62-.79-1.73,0-3.44,.29-5.12,.87-1.68,.58-3.2,1.85-4.55,3.82-1.34,1.97-2.45,4.86-3.31,8.65-.87,3.8-1.3,8.92-1.3,15.36,0,5.1,.27,9.28,.79,12.55,.53,3.27,1.32,5.87,2.38,7.79,1.06,1.93,2.39,3.27,3.97,4.04,1.59,.77,3.49,1.16,5.7,1.16s4.47-.36,6.49-1.08c2.02-.72,3.65-1.47,4.9-2.24,.39,1.35,.68,2.5,.87,3.46,.19,.96,.29,1.92,.29,2.88,0,1.92-1.49,3.63-4.47,5.12-2.98,1.49-6.88,2.24-11.68,2.24-3.47,0-6.52-.43-9.16-1.3-2.65-.87-4.88-2.6-6.7-5.2-1.83-2.6-3.22-6.25-4.19-10.96-.96-4.71-1.44-10.87-1.44-18.46,0-8.66,.79-15.55,2.38-20.7,1.59-5.15,3.63-9.09,6.13-11.83,2.5-2.74,5.29-4.52,8.37-5.34,3.08-.82,6.11-1.23,9.09-1.23,3.37,0,6.2,.6,8.51,1.81,2.3,1.2,3.46,2.76,3.46,4.69Z"/><path class="cls-1" d="M569.56,31.37c12.21,0,18.32,7.74,18.32,23.22,0,3.18-.12,6.45-.36,9.81-.24,3.37-.65,6.35-1.22,8.94-2.51,.48-5.15,.87-7.94,1.16-2.79,.29-5.55,.53-8.3,.72-2.74,.19-5.31,.31-7.71,.36-2.4,.05-4.47,.07-6.2,.07,.09,3.85,.46,7.02,1.08,9.52,.62,2.5,1.47,4.47,2.52,5.91,1.06,1.44,2.4,2.45,4.04,3.03,1.63,.58,3.56,.87,5.77,.87,2.89,0,5.72-.41,8.51-1.23,2.79-.81,5.43-1.9,7.94-3.25,.38,1.06,.64,2.36,.79,3.89,.14,1.54,.21,2.88,.21,4.04s-.52,2.21-1.58,3.17c-1.06,.96-2.5,1.8-4.33,2.52-1.82,.72-3.94,1.27-6.35,1.66-2.4,.38-4.96,.58-7.64,.58-3.37,0-6.47-.43-9.3-1.3-2.84-.87-5.27-2.52-7.28-4.98-2.02-2.45-3.61-5.89-4.76-10.31-1.15-4.42-1.73-10.14-1.73-17.16,0-9.04,.74-16.28,2.23-21.71,1.49-5.43,3.41-9.59,5.77-12.48,2.36-2.88,5.07-4.78,8.15-5.7,3.08-.92,6.2-1.37,9.38-1.37Zm-3.32-30c.58-.29,1.4-.43,2.45-.43,1.25,0,2.46,.58,3.61,1.73,2.59,2.6,4.9,5.05,6.92,7.35,1.73,1.93,3.34,3.8,4.83,5.63,1.49,1.83,2.24,3.03,2.24,3.61,0,1.06-.87,1.9-2.6,2.52-1.73,.63-3.66,.94-5.77,.94-1.44-1.54-2.79-2.98-4.04-4.33-1.06-1.16-2.09-2.36-3.1-3.61-1.01-1.25-1.76-2.36-2.23-3.32-1.63,2.12-3.12,3.99-4.47,5.62-1.25,1.35-2.46,2.6-3.61,3.75-1.16,1.16-2.07,1.73-2.74,1.73-2.02,0-3.65-.31-4.91-.94-1.25-.62-2.21-1.47-2.88-2.52l16.29-17.74Zm2.02,40.24c-1.44,0-2.83,.36-4.18,1.08-1.35,.72-2.58,2.02-3.68,3.89-1.11,1.87-2.02,4.38-2.74,7.5-.72,3.12-1.18,7.14-1.37,12.04h4.61c1.73,0,3.49-.07,5.27-.22,1.78-.15,3.51-.31,5.19-.5,1.68-.19,3.15-.48,4.4-.86,.29-1.35,.48-2.79,.58-4.33,.09-1.54,.15-2.98,.15-4.33-.1-5.19-.72-8.87-1.88-11.04-1.15-2.16-3.27-3.25-6.35-3.25Z"/><path class="cls-1" d="M619.61,31.37c3.75,0,6.8,.29,9.16,.87,2.36,.58,4.21,1.28,5.56,2.09,1.34,.82,2.26,1.71,2.74,2.67,.48,.97,.72,1.78,.72,2.45,0,2.02-.87,3.99-2.6,5.91-4.13-2.5-8.85-3.75-14.13-3.75-3.37,0-6.11,.6-8.22,1.81-2.11,1.2-3.17,2.91-3.17,5.12,0,1.35,.33,2.67,1.01,3.97,.67,1.3,2.26,2.96,4.76,4.98l13.41,10.82c3.08,3.08,5.27,5.93,6.56,8.58,1.3,2.65,1.95,5.8,1.95,9.45,0,6.45-2.12,11.4-6.35,14.86-4.23,3.46-10.06,5.19-17.46,5.19-5.19,0-9.42-.6-12.69-1.81-3.27-1.2-4.9-3.05-4.9-5.55,0-.87,.14-1.88,.43-3.03,.29-1.16,.81-2.41,1.58-3.75,4.13,2.4,8.95,3.61,14.42,3.61,3.66,0,6.51-.77,8.59-2.31,2.06-1.54,3.1-3.75,3.1-6.63,0-1.92-.41-3.8-1.23-5.63-.81-1.83-2.33-3.7-4.54-5.63l-13.99-11.97c-3.27-2.69-5.46-5.31-6.56-7.86-1.11-2.54-1.66-5.02-1.66-7.43,0-5,1.89-9.09,5.69-12.26,3.8-3.17,9.73-4.76,17.81-4.76Z"/><path class="cls-1" d="M334.31,177.05c4.71,0,8.85,.72,12.4,2.16,3.56,1.45,6.52,3.9,8.88,7.36,2.36,3.46,4.11,8.1,5.26,13.92,1.15,5.82,1.73,13.11,1.73,21.85,0,10.58-.62,19.43-1.88,26.54-1.25,7.12-3.08,12.84-5.48,17.17-2.4,4.32-5.36,7.41-8.87,9.23-3.51,1.83-7.48,2.74-11.9,2.74h-18.03v-98.23c0-.87,.24-1.53,.72-2.02,.48-.48,1.54-.72,3.17-.72h13.99Zm14.86,44.14c0-6.63-.29-12.12-.87-16.44-.58-4.33-1.47-7.74-2.67-10.24-1.2-2.5-2.71-4.23-4.54-5.19-1.82-.96-3.94-1.44-6.35-1.44h-6.63v79.04h6.49c1.82,0,3.63-.51,5.41-1.51,1.78-1.01,3.34-3.13,4.69-6.35,1.34-3.22,2.42-7.84,3.24-13.85,.81-6.01,1.22-14.01,1.22-24.02Z"/><path class="cls-1" d="M385.37,275.72c0,.58-.08,1.04-.22,1.37-.14,.34-.6,.58-1.37,.72-.78,.15-1.94,.22-3.53,.22h-6.86v-66.78c0-1.35,.17-2.38,.51-3.1,.33-.72,.96-1.25,1.87-1.59,.92-.34,2.14-.53,3.68-.58,1.54-.05,3.51-.07,5.92-.07v69.81Zm-11.83-92.75c.1-2.6,.68-4.69,1.73-6.27,1.06-1.58,2.74-2.38,5.05-2.38s3.75,.63,4.62,1.87c.87,1.25,1.25,3.42,1.15,6.49,0,2.98-.55,5.29-1.66,6.92-1.1,1.64-2.77,2.45-4.98,2.45-1.92,0-3.39-.67-4.39-2.02-1.01-1.35-1.52-3.7-1.52-7.07Z"/><path class="cls-1" d="M394.6,209.51c-.19-.87-.24-1.56-.15-2.09,.1-.53,.56-.89,1.38-1.08,.81-.19,2.11-.31,3.89-.36,1.78-.05,4.26-.07,7.43-.07l4.61,23.07c.77,3.75,1.49,7.77,2.17,12.05,.67,4.28,1.25,8.25,1.73,11.9,.58,4.23,1.16,8.42,1.73,12.55h.29c.48-4.23,1.01-8.46,1.59-12.7,.48-3.65,1.03-7.6,1.66-11.83,.62-4.23,1.32-8.27,2.09-12.12l3.9-20.34c.09-.67,.24-1.18,.43-1.52,.19-.34,.69-.57,1.51-.72,.81-.14,2.02-.24,3.6-.29,1.59-.05,3.87-.07,6.85-.07l-16.59,72.55c-1.06,.19-2.45,.31-4.18,.36-1.73,.05-3.08,.07-4.03,.07-1.35,0-2.43-.68-3.25-2.02-.81-1.35-1.47-3.03-1.94-5.05l-14.71-62.31Z"/><path class="cls-1" d="M468.16,204.46c12.21,0,18.32,7.74,18.32,23.22,0,3.18-.12,6.44-.36,9.81-.24,3.36-.66,6.34-1.22,8.94-2.51,.48-5.15,.87-7.94,1.16-2.79,.29-5.55,.53-8.3,.72-2.74,.19-5.31,.31-7.71,.36-2.4,.05-4.47,.07-6.2,.07,.09,3.85,.46,7.02,1.08,9.52,.62,2.5,1.47,4.47,2.52,5.91,1.06,1.44,2.4,2.45,4.04,3.03,1.63,.58,3.56,.87,5.77,.87,2.89,0,5.72-.41,8.51-1.23,2.79-.81,5.43-1.9,7.94-3.24,.38,1.06,.65,2.36,.79,3.89,.14,1.54,.21,2.88,.21,4.04s-.52,2.21-1.58,3.18c-1.07,.96-2.5,1.8-4.33,2.52-1.82,.72-3.94,1.27-6.35,1.66-2.4,.38-4.96,.58-7.64,.58-3.37,0-6.47-.43-9.3-1.3-2.84-.86-5.27-2.52-7.28-4.98-2.02-2.45-3.61-5.89-4.76-10.31-1.15-4.42-1.73-10.14-1.73-17.17,0-9.04,.74-16.27,2.23-21.71,1.49-5.43,3.41-9.59,5.77-12.48,2.36-2.88,5.07-4.78,8.15-5.7,3.08-.91,6.2-1.37,9.38-1.37Zm-1.3,10.24c-1.44,0-2.83,.36-4.18,1.09-1.35,.72-2.58,2.02-3.68,3.89-1.11,1.87-2.02,4.38-2.74,7.5-.72,3.13-1.18,7.14-1.37,12.04h4.61c1.73,0,3.49-.07,5.27-.22,1.78-.15,3.51-.31,5.19-.51,1.68-.19,3.15-.48,4.4-.86,.29-1.35,.48-2.79,.58-4.33,.09-1.54,.14-2.98,.14-4.33-.1-5.19-.72-8.87-1.88-11.03-1.15-2.16-3.27-3.25-6.35-3.25Z"/><path class="cls-1" d="M496.72,210.95c2.79-1.92,5.87-3.48,9.23-4.69,3.37-1.21,6.83-1.8,10.39-1.8s6.25,.53,7.78,1.59c1.54,1.06,2.31,2.55,2.31,4.47,0,.77-.1,1.81-.29,3.1-.19,1.3-.53,2.58-1.01,3.82-2.21-1.15-4.52-1.73-6.92-1.73-1.63,0-3.29,.27-4.98,.8-1.68,.53-3.19,1.37-4.54,2.52l-.14,56.69c0,.58-.08,1.04-.22,1.37-.15,.34-.58,.58-1.3,.72-.72,.15-1.9,.22-3.53,.22h-6.78v-67.07Z"/><path class="cls-1" d="M556.15,204.46c3.75,0,6.8,.29,9.16,.87,2.36,.58,4.2,1.28,5.55,2.09,1.35,.82,2.26,1.71,2.74,2.67,.48,.97,.72,1.78,.72,2.45,0,2.02-.87,3.99-2.59,5.91-4.14-2.5-8.85-3.75-14.14-3.75-3.37,0-6.11,.6-8.22,1.81-2.12,1.2-3.18,2.91-3.18,5.12,0,1.35,.33,2.67,1.01,3.97,.67,1.3,2.26,2.96,4.76,4.98l13.41,10.82c3.08,3.08,5.27,5.93,6.57,8.58,1.3,2.65,1.95,5.8,1.95,9.45,0,6.45-2.11,11.4-6.35,14.86-4.23,3.46-10.05,5.19-17.45,5.19-5.2,0-9.43-.6-12.7-1.81-3.27-1.2-4.9-3.05-4.9-5.55,0-.87,.14-1.88,.43-3.03,.29-1.15,.81-2.4,1.59-3.75,4.13,2.4,8.95,3.6,14.43,3.6,3.65,0,6.51-.77,8.58-2.31,2.07-1.53,3.1-3.75,3.1-6.63,0-1.92-.41-3.8-1.22-5.63-.82-1.82-2.33-3.7-4.54-5.63l-13.99-11.97c-3.27-2.69-5.46-5.31-6.57-7.86-1.1-2.55-1.66-5.02-1.66-7.43,0-5,1.9-9.08,5.7-12.26,3.79-3.17,9.74-4.76,17.81-4.76Z"/></g><path class="cls-1" d="M244.36,42.64c24.32,23.13,37.11,64.83,33.39,108.83-3.97,46.92-25.1,86.49-57.98,108.59-51.7,34.76-117.73,19.71-162.28-5.95-.64-.36-.85-1.17-.49-1.8,.36-.63,1.17-.85,1.8-.49,43.86,25.27,108.79,40.13,159.5,6.05,32.21-21.65,52.91-60.51,56.81-106.63,3.65-43.21-8.83-84.09-32.58-106.69-15.64-14.89-38.87-27.48-65.09-34.88,3.14,1.17,6.25,2.5,9.33,3.99,14.61,7.09,31.3,19.41,44.53,40.81,17.75,17.52,28.77,42.47,34.56,76.08,5.99,34.68,.09,66.54-16.59,89.74-13.98,19.44-34.74,31.77-60.01,35.65-4.44,.68-8.79,1.21-13.08,1.6-2.48,.68-5.01,1.3-7.59,1.86-56.17,12.2-106.76-4.45-138.8-45.7C10.1,188.35,.19,157.11,.98,127.27-3.48,91.81,7.39,58.09,32.43,34.78,59.12,9.95,93.31,0,127.25,0c46.01,0,91.54,18.31,117.11,42.64ZM12.44,79.96c9.24-18.47,23.35-32.88,41.51-42.81,6.41-6.76,13.64-12.71,21.58-17.63C90.73,10.12,111.59,3.39,133.95,2.71,98.51,1.34,62.16,10.73,34.23,36.71,13.83,55.7,3.09,81.8,2.66,110.09c1.81-10.53,5.05-20.69,9.77-30.13ZM127.96,21.14c42.12,.73,73.18,8.92,95.39,26.32-11.79-15.81-25.5-25.5-37.71-31.43C147.13-2.65,103.29,5.45,76.93,21.77c-5.37,3.33-10.4,7.17-15.08,11.45,18.61-8.36,40.87-12.51,66.1-12.08ZM28.87,166.33c18.53,51.67,73.03,86.34,126.76,80.66,.73-.08,1.37,.45,1.45,1.17,.08,.72-.45,1.38-1.17,1.45-54.92,5.82-110.59-29.61-129.52-82.39-15.01-41.85-5.31-90.37,21.79-123.53-14.33,9.38-25.62,21.95-33.37,37.44-7.04,14.07-10.72,29.78-11.18,45.91,1.78,14.14,6.07,28.58,12.92,42.72,21.76,44.92,76.05,92.52,159.17,85.15,56.32-15.54,82.92-61.68,75.07-130.82-3.32-29.16-11.27-51.07-21.3-67.55-22.12-21.87-54.93-31.97-101.57-32.78-28.07-.5-52.42,4.79-71.99,15.31C25.63,71.49,13.46,123.39,28.87,166.33Zm218.27,52.41c16.26-22.61,21.99-53.77,16.13-87.74-4.77-27.59-13.1-49.21-25.93-65.6,7.52,15.33,13.34,34.49,16.06,58.42,7.42,65.22-15.3,110.43-64.3,129.48,24.46-3.82,44.52-15.76,58.04-34.55Zm-86.89,39.59c-.51,0-1.02,0-1.53,0-74.76,0-123.96-44.9-144.55-87.4-4.23-8.73-7.5-17.57-9.83-26.4,2.64,23.76,11.99,47.52,27.53,67.54,24.64,31.72,60.5,48.59,101.46,48.59,8.75,0,17.75-.77,26.91-2.33Z"/></g></svg>