<svg width="1440" height="1024" viewBox="0 0 1440 1024" fill="none" xmlns="http://www.w3.org/2000/svg">
<g clip-path="url(#clip0_11_3)">
<path d="M48.5832 1018C48.5832 1018 668.083 695.5 355.083 518C42.0834 340.5 -131 180 127 138C385 96 -48 -1.5 -48 -1.5" stroke="#D87353" stroke-width="2"/>
<path d="M-175.216 19C-175.216 19 566.917 374.524 191.957 570.199C-183.002 765.875 -372.28 1132.42 -144.069 1089.43C84.1411 1046.44 401 1214 401 1214" stroke="#D87353" stroke-width="2"/>
<path d="M1465.5 244C1465.5 244 979 702.5 1365.5 863.5C1752 1024.5 1556 1325.5 1365.5 1286.5C1175 1247.5 910.5 1399.5 910.5 1399.5" stroke="#D87353" stroke-width="2"/>
<path d="M1503 607C1503 607 883.5 284.5 1196.5 107C1509.5 -70.5001 1667.5 -403 1477 -364C1286.5 -325 1022 -477 1022 -477" stroke="#D87353" stroke-width="2"/>
</g>
<defs>
<clipPath id="clip0_11_3">
<rect width="1440" height="1024" fill="white"/>
</clipPath>
</defs>
</svg>
