<?xml version="1.0" encoding="UTF-8"?><svg id="Camada_2" xmlns="http://www.w3.org/2000/svg" viewBox="0 0 638.98 280.93"><defs><style>.cls-1{fill:#fff;}</style></defs><g id="Layer_1"><g><path class="cls-1" d="M317.01,105.13V6.43c0-.38,.09-.77,.29-1.15,.19-.29,.46-.58,.79-.87,.33-.29,.8-.43,1.37-.43h34.55v5.64c0,1.35-.08,2.36-.22,3.03-.14,.68-.36,1.08-.65,1.23-.29,.15-.72,.22-1.3,.22h-22.98v30.64h21.68c0,4.44-.1,7.32-.29,8.67-.19,1.35-.82,2.02-1.88,2.02h-19.51v47.4c0,.38-.1,.77-.29,1.15-.39,.77-1.06,1.16-2.02,1.16h-9.53Z"/><path class="cls-1" d="M359.79,37.93c2.79-1.93,5.87-3.49,9.24-4.69,3.37-1.21,6.84-1.81,10.41-1.81s6.26,.53,7.8,1.59c1.54,1.06,2.32,2.55,2.32,4.48,0,.77-.1,1.81-.29,3.11-.2,1.3-.53,2.58-1.01,3.83-2.22-1.15-4.53-1.73-6.94-1.73-1.64,0-3.3,.27-4.99,.8-1.69,.53-3.21,1.37-4.55,2.53l-.15,56.79c0,.58-.07,1.04-.21,1.37-.15,.34-.58,.58-1.3,.72-.72,.15-1.9,.22-3.54,.22h-6.79V37.93Z"/><path class="cls-1" d="M395.62,39.38c0-.77,.12-1.52,.37-2.24,.24-.72,.65-1.32,1.23-1.81,1.25-.77,3.85-1.61,7.8-2.53,3.94-.92,8.67-1.37,14.16-1.37,6.26,0,10.81,1.3,13.65,3.9,2.84,2.6,4.26,7.18,4.26,13.73v20.16c0,4.19-.05,8.24-.14,12.14-.1,3.9-.19,7.59-.29,11.06-.09,3.47-.24,6.55-.43,9.25-1.93,1.16-4.58,2.27-7.95,3.32-3.37,1.06-7.42,1.59-12.14,1.59-2.6,0-5.15-.19-7.66-.58-2.5-.39-4.72-1.35-6.65-2.89-1.93-1.54-3.46-3.78-4.62-6.72-1.16-2.94-1.73-6.87-1.73-11.78s.56-9.05,1.66-12.14c1.11-3.08,2.56-5.49,4.34-7.23,1.78-1.73,3.83-2.89,6.14-3.47,2.31-.57,4.68-.86,7.08-.86,1.64,0,3.45,.12,5.42,.36,1.97,.24,3.68,.75,5.13,1.52v-11.42c0-3.37-.77-5.63-2.31-6.79-1.54-1.15-3.76-1.73-6.65-1.73-3.66,0-7.22,.31-10.69,.94-3.47,.62-6.27,1.37-8.38,2.24-.68-1.16-1.11-2.33-1.3-3.54-.19-1.2-.29-2.24-.29-3.11Zm29.63,31.65c-.97-.48-2.07-.82-3.33-1.01-1.25-.19-2.4-.29-3.46-.29-1.45,0-2.82,.17-4.12,.51-1.3,.34-2.44,1.04-3.4,2.09-.97,1.06-1.73,2.53-2.31,4.41-.58,1.88-.87,4.41-.87,7.59,0,2.6,.22,4.72,.66,6.36,.43,1.64,1.06,2.92,1.88,3.83,.82,.92,1.81,1.52,2.96,1.81,1.15,.28,2.45,.43,3.9,.43,1.64,0,3.15-.24,4.55-.72,1.39-.48,2.43-1.06,3.11-1.74,.09-1.16,.17-2.67,.21-4.55,.05-1.88,.1-3.88,.14-6,.05-2.12,.07-4.29,.07-6.5v-6.21Z"/><path class="cls-1" d="M448.94,36.34c1.45-.58,3.08-1.18,4.92-1.81,1.83-.62,3.75-1.15,5.78-1.59,2.02-.43,4.07-.8,6.14-1.08,2.07-.29,4.07-.43,6-.43,7.61,0,12.9,1.47,15.9,4.41,2.98,2.94,4.48,7.93,4.48,14.96v52.02c0,.58-.07,1.04-.21,1.37-.14,.34-.61,.58-1.38,.72s-1.97,.22-3.61,.22h-6.94V54.26c0-4.63-.53-7.88-1.59-9.76-1.06-1.88-3.42-2.82-7.08-2.82-1.54,0-3.3,.22-5.28,.65-1.97,.43-3.78,1.09-5.41,1.95v58.53c0,.58-.07,1.04-.22,1.37-.15,.34-.6,.58-1.37,.72-.78,.15-1.93,.22-3.47,.22h-6.64V36.34Z"/><path class="cls-1" d="M540.13,37.93c0,.77-.1,1.74-.29,2.89-.19,1.16-.53,2.36-1.01,3.61-1.15-.67-2.65-1.28-4.48-1.8-1.84-.53-3.71-.8-5.63-.8-1.74,0-3.45,.29-5.13,.87-1.68,.58-3.21,1.85-4.55,3.83-1.35,1.98-2.45,4.87-3.32,8.67-.87,3.81-1.3,8.94-1.3,15.39,0,5.11,.27,9.3,.79,12.57,.53,3.28,1.33,5.88,2.38,7.8,1.06,1.93,2.39,3.28,3.97,4.05,1.59,.77,3.49,1.16,5.71,1.16s4.48-.36,6.5-1.08c2.03-.72,3.66-1.47,4.91-2.24,.39,1.35,.68,2.5,.87,3.47,.19,.96,.29,1.93,.29,2.89,0,1.93-1.49,3.64-4.48,5.13-2.98,1.49-6.89,2.24-11.7,2.24-3.47,0-6.53-.43-9.18-1.3s-4.89-2.6-6.72-5.2c-1.84-2.6-3.23-6.26-4.2-10.98-.96-4.72-1.44-10.89-1.44-18.5,0-8.67,.79-15.58,2.38-20.74,1.59-5.16,3.63-9.11,6.14-11.85,2.51-2.74,5.3-4.53,8.38-5.34,3.08-.82,6.12-1.23,9.11-1.23,3.37,0,6.21,.6,8.53,1.81,2.31,1.2,3.46,2.77,3.46,4.69Z"/><path class="cls-1" d="M570.62,31.43c12.24,0,18.35,7.75,18.35,23.26,0,3.18-.12,6.46-.36,9.83-.24,3.37-.65,6.36-1.23,8.96-2.51,.48-5.15,.87-7.95,1.16-2.8,.29-5.57,.53-8.32,.72-2.74,.19-5.32,.31-7.73,.36-2.4,.05-4.48,.07-6.21,.07,.09,3.86,.46,7.04,1.08,9.54,.62,2.51,1.47,4.48,2.53,5.92,1.06,1.45,2.4,2.46,4.05,3.03,1.64,.58,3.56,.87,5.78,.87,2.89,0,5.74-.41,8.53-1.23,2.79-.82,5.44-1.9,7.95-3.25,.38,1.06,.65,2.36,.79,3.9,.14,1.54,.21,2.89,.21,4.05s-.53,2.22-1.58,3.18c-1.06,.96-2.5,1.8-4.34,2.53-1.83,.72-3.95,1.28-6.36,1.66-2.41,.38-4.97,.58-7.66,.58-3.37,0-6.48-.43-9.32-1.3-2.84-.87-5.28-2.53-7.29-4.99-2.03-2.46-3.62-5.9-4.77-10.33-1.15-4.43-1.73-10.16-1.73-17.2,0-9.05,.74-16.31,2.24-21.75,1.49-5.44,3.42-9.61,5.78-12.5,2.36-2.89,5.08-4.79,8.16-5.71,3.08-.92,6.21-1.37,9.39-1.37Zm-3.33-30.06c.58-.29,1.4-.43,2.46-.43,1.25,0,2.46,.58,3.62,1.73,2.6,2.6,4.91,5.06,6.93,7.37,1.73,1.93,3.34,3.81,4.83,5.64,1.49,1.83,2.25,3.03,2.25,3.61,0,1.06-.87,1.9-2.6,2.53-1.74,.63-3.66,.94-5.78,.94-1.45-1.54-2.79-2.99-4.05-4.34-1.06-1.16-2.09-2.36-3.11-3.61-1.01-1.25-1.76-2.36-2.24-3.32-1.64,2.12-3.13,4-4.48,5.63-1.26,1.35-2.46,2.6-3.62,3.76-1.16,1.16-2.07,1.74-2.74,1.74-2.02,0-3.66-.31-4.92-.94-1.25-.62-2.21-1.47-2.89-2.53l16.33-17.78Zm2.02,40.32c-1.45,0-2.84,.36-4.19,1.08-1.35,.72-2.58,2.02-3.68,3.9-1.11,1.88-2.03,4.39-2.75,7.51-.72,3.13-1.18,7.15-1.37,12.07h4.62c1.74,0,3.49-.07,5.28-.22,1.78-.14,3.52-.31,5.2-.51,1.68-.19,3.15-.48,4.41-.86,.29-1.35,.48-2.79,.58-4.34,.09-1.54,.15-2.98,.15-4.34-.1-5.2-.72-8.89-1.88-11.06-1.16-2.17-3.27-3.25-6.36-3.25Z"/><path class="cls-1" d="M620.76,31.43c3.76,0,6.82,.29,9.17,.87,2.36,.58,4.22,1.28,5.57,2.09,1.35,.82,2.26,1.71,2.75,2.67,.48,.97,.72,1.78,.72,2.46,0,2.02-.87,4-2.61,5.92-4.14-2.5-8.86-3.76-14.16-3.76-3.37,0-6.12,.61-8.24,1.81-2.12,1.2-3.18,2.91-3.18,5.13,0,1.35,.34,2.67,1.01,3.97,.67,1.3,2.26,2.96,4.77,4.99l13.44,10.84c3.08,3.08,5.28,5.95,6.57,8.6,1.3,2.65,1.96,5.81,1.96,9.46,0,6.46-2.13,11.42-6.36,14.89-4.24,3.47-10.07,5.2-17.49,5.2-5.2,0-9.44-.61-12.72-1.81-3.27-1.2-4.91-3.06-4.91-5.56,0-.87,.15-1.88,.44-3.03,.29-1.16,.81-2.41,1.58-3.76,4.14,2.41,8.96,3.61,14.45,3.61,3.66,0,6.53-.77,8.6-2.31,2.07-1.54,3.11-3.76,3.11-6.65,0-1.93-.41-3.8-1.23-5.63-.81-1.83-2.34-3.71-4.55-5.64l-14.02-11.99c-3.27-2.69-5.47-5.32-6.57-7.88-1.11-2.55-1.66-5.03-1.66-7.44,0-5.01,1.9-9.1,5.7-12.28,3.81-3.18,9.75-4.77,17.85-4.77Z"/><path class="cls-1" d="M334.93,177.38c4.72,0,8.86,.72,12.43,2.17,3.56,1.45,6.53,3.9,8.89,7.37,2.36,3.47,4.12,8.12,5.27,13.95,1.16,5.83,1.74,13.13,1.74,21.9,0,10.6-.63,19.46-1.88,26.59-1.25,7.13-3.08,12.86-5.49,17.2-2.41,4.34-5.37,7.42-8.89,9.25-3.52,1.83-7.49,2.75-11.92,2.75h-18.06v-98.41c0-.87,.24-1.54,.72-2.02,.48-.48,1.54-.72,3.17-.72h14.02Zm14.89,44.22c0-6.65-.29-12.14-.87-16.47-.58-4.34-1.47-7.75-2.67-10.26-1.2-2.5-2.72-4.24-4.55-5.2-1.83-.96-3.95-1.44-6.36-1.44h-6.65v79.19h6.5c1.83,0,3.64-.51,5.42-1.52,1.78-1.01,3.34-3.13,4.7-6.36,1.35-3.22,2.43-7.85,3.25-13.87,.81-6.02,1.23-14.04,1.23-24.06Z"/><path class="cls-1" d="M386.09,276.23c0,.57-.08,1.04-.22,1.37-.14,.34-.6,.58-1.37,.72-.78,.15-1.95,.22-3.54,.22h-6.87v-66.91c0-1.35,.17-2.38,.51-3.11,.33-.72,.96-1.25,1.87-1.59,.92-.33,2.15-.53,3.68-.57,1.55-.05,3.52-.07,5.93-.07v69.94Zm-11.86-92.92c.1-2.6,.68-4.69,1.74-6.29,1.06-1.59,2.75-2.38,5.06-2.38s3.76,.63,4.63,1.88c.87,1.25,1.25,3.42,1.15,6.5,0,2.99-.55,5.3-1.66,6.93-1.1,1.64-2.77,2.46-4.99,2.46-1.93,0-3.4-.68-4.4-2.03-1.01-1.35-1.52-3.71-1.52-7.08Z"/><path class="cls-1" d="M395.33,209.9c-.19-.87-.24-1.56-.15-2.1,.1-.53,.56-.89,1.38-1.08,.82-.19,2.12-.31,3.9-.36,1.78-.05,4.26-.07,7.45-.07l4.62,23.12c.77,3.76,1.49,7.78,2.17,12.07,.67,4.29,1.25,8.26,1.73,11.92,.58,4.24,1.16,8.43,1.74,12.58h.29c.48-4.24,1.01-8.48,1.59-12.72,.48-3.66,1.03-7.61,1.66-11.85,.63-4.24,1.33-8.29,2.09-12.14l3.91-20.37c.09-.68,.24-1.18,.43-1.52,.19-.33,.69-.57,1.52-.72,.81-.15,2.03-.24,3.61-.29,1.59-.05,3.88-.07,6.87-.07l-16.62,72.69c-1.06,.19-2.45,.31-4.19,.36-1.74,.04-3.08,.07-4.04,.07-1.36,0-2.44-.68-3.26-2.03-.81-1.35-1.47-3.03-1.95-5.06l-14.74-62.43Z"/><path class="cls-1" d="M469.04,204.84c12.24,0,18.35,7.76,18.35,23.26,0,3.18-.12,6.46-.36,9.83-.24,3.37-.66,6.36-1.23,8.96-2.51,.48-5.16,.87-7.95,1.16-2.79,.29-5.57,.53-8.31,.72-2.74,.19-5.32,.31-7.73,.36-2.41,.05-4.48,.07-6.21,.07,.09,3.86,.46,7.04,1.08,9.54,.63,2.51,1.47,4.48,2.53,5.92,1.06,1.45,2.41,2.46,4.05,3.03,1.64,.58,3.56,.87,5.78,.87,2.89,0,5.73-.41,8.53-1.23,2.8-.81,5.44-1.9,7.95-3.25,.38,1.06,.65,2.36,.79,3.9,.15,1.54,.21,2.89,.21,4.05s-.52,2.21-1.58,3.18c-1.07,.96-2.51,1.81-4.34,2.53-1.83,.72-3.95,1.27-6.36,1.66-2.4,.38-4.96,.58-7.66,.58-3.37,0-6.48-.43-9.32-1.3-2.84-.87-5.28-2.53-7.3-4.99-2.02-2.45-3.62-5.9-4.77-10.33-1.15-4.43-1.73-10.16-1.73-17.2,0-9.05,.74-16.3,2.24-21.75,1.49-5.44,3.42-9.61,5.78-12.5,2.36-2.89,5.08-4.79,8.16-5.71,3.08-.92,6.21-1.37,9.4-1.37Zm-1.3,10.26c-1.45,0-2.84,.36-4.19,1.08-1.35,.72-2.58,2.02-3.68,3.9-1.11,1.88-2.02,4.38-2.75,7.51-.72,3.13-1.18,7.15-1.37,12.07h4.62c1.74,0,3.5-.07,5.28-.22,1.78-.15,3.52-.31,5.2-.51,1.68-.19,3.15-.48,4.41-.86,.29-1.35,.48-2.79,.58-4.34,.09-1.54,.15-2.98,.15-4.34-.1-5.2-.72-8.89-1.88-11.06-1.16-2.17-3.27-3.25-6.36-3.25Z"/><path class="cls-1" d="M497.64,211.34c2.79-1.93,5.88-3.49,9.25-4.69,3.37-1.21,6.84-1.81,10.41-1.81s6.26,.53,7.8,1.59c1.55,1.06,2.31,2.55,2.31,4.48,0,.77-.1,1.81-.29,3.11-.19,1.3-.53,2.58-1.01,3.83-2.21-1.15-4.53-1.73-6.93-1.73-1.64,0-3.3,.27-4.99,.8-1.68,.53-3.2,1.37-4.55,2.53l-.15,56.79c0,.57-.07,1.04-.22,1.37-.15,.34-.58,.58-1.3,.72-.72,.15-1.9,.22-3.54,.22h-6.79v-67.2Z"/><path class="cls-1" d="M557.19,204.84c3.76,0,6.81,.29,9.18,.87,2.36,.58,4.21,1.28,5.56,2.09,1.35,.82,2.26,1.71,2.74,2.67,.48,.97,.72,1.79,.72,2.46,0,2.02-.87,4-2.6,5.92-4.15-2.5-8.87-3.76-14.16-3.76-3.38,0-6.12,.6-8.24,1.81-2.12,1.2-3.18,2.91-3.18,5.13,0,1.35,.33,2.67,1.01,3.97,.67,1.3,2.26,2.96,4.77,4.99l13.44,10.84c3.08,3.08,5.28,5.95,6.58,8.59,1.3,2.65,1.95,5.81,1.95,9.47,0,6.46-2.12,11.42-6.36,14.89-4.24,3.47-10.07,5.2-17.48,5.2-5.21,0-9.45-.61-12.72-1.81-3.27-1.2-4.91-3.06-4.91-5.56,0-.87,.15-1.88,.43-3.03,.29-1.16,.82-2.41,1.59-3.76,4.14,2.4,8.96,3.61,14.45,3.61,3.65,0,6.52-.77,8.6-2.31,2.07-1.54,3.11-3.76,3.11-6.65,0-1.93-.41-3.8-1.23-5.63-.82-1.83-2.34-3.71-4.55-5.64l-14.02-11.99c-3.27-2.7-5.47-5.32-6.58-7.88-1.1-2.55-1.66-5.03-1.66-7.44,0-5.01,1.9-9.1,5.71-12.28,3.8-3.18,9.76-4.77,17.85-4.77Z"/></g><path class="cls-1" d="M244.82,42.72c24.37,23.18,37.19,64.96,33.46,109.03-3.97,47-25.15,86.65-58.08,108.8-51.81,34.82-117.96,19.75-162.59-5.96-.63-.37-.85-1.17-.49-1.81,.37-.63,1.17-.85,1.8-.49,43.95,25.32,109,40.2,159.8,6.06,32.27-21.69,53.02-60.63,56.92-106.82,3.65-43.3-8.85-84.25-32.64-106.89-15.68-14.92-38.95-27.53-65.21-34.95,3.14,1.17,6.26,2.5,9.33,4,14.64,7.1,31.36,19.45,44.61,40.88,17.79,17.55,28.83,42.56,34.64,76.22,5.99,34.74,.09,66.67-16.63,89.9-14.01,19.47-34.79,31.83-60.11,35.72-4.45,.69-8.82,1.22-13.11,1.6-2.48,.68-5.01,1.3-7.61,1.87-56.28,12.23-106.96-4.46-139.06-45.78C10.12,188.7,.18,157.4,.98,127.5-3.5,91.98,7.4,58.2,32.5,34.84,59.22,9.97,93.48,0,127.48,0,173.59,0,219.19,18.34,244.82,42.72ZM12.46,80.1c9.25-18.5,23.38-32.94,41.58-42.89,6.44-6.77,13.67-12.73,21.63-17.66C90.9,10.14,111.8,3.39,134.21,2.71,98.69,1.34,62.27,10.74,34.3,36.78,13.86,55.8,3.09,81.95,2.66,110.29c1.81-10.55,5.06-20.73,9.8-30.19ZM128.19,21.18c42.21,.73,73.32,8.94,95.57,26.37-11.83-15.85-25.55-25.55-37.79-31.49C147.4-2.65,103.48,5.46,77.07,21.81c-5.38,3.33-10.42,7.18-15.11,11.47,18.65-8.38,40.95-12.54,66.23-12.1ZM28.92,166.64c18.56,51.76,73.16,86.5,127,80.81,.73-.07,1.38,.45,1.45,1.18,.08,.73-.45,1.38-1.17,1.45-55.02,5.83-110.8-29.66-129.77-82.55-15.04-41.92-5.31-90.54,21.83-123.76-14.35,9.4-25.67,21.99-33.43,37.51-7.05,14.09-10.74,29.83-11.2,46,1.8,14.17,6.08,28.63,12.94,42.8,21.8,45.01,76.19,92.7,159.48,85.31,56.42-15.56,83.07-61.8,75.21-131.06-3.33-29.21-11.29-51.17-21.34-67.67-22.16-21.91-55.03-32.04-101.76-32.84-28.12-.5-52.52,4.81-72.13,15.34C25.67,71.62,13.48,123.62,28.92,166.64Zm218.68,52.5c16.3-22.66,22.04-53.87,16.16-87.9-4.77-27.64-13.13-49.31-25.98-65.73,7.54,15.35,13.37,34.55,16.1,58.53,7.42,65.34-15.34,110.64-64.42,129.72,24.49-3.82,44.6-15.79,58.14-34.62Zm-87.05,39.66c-.51,0-1.02,0-1.52,0-74.91,0-124.2-44.98-144.83-87.57-4.24-8.75-7.51-17.6-9.85-26.44,2.65,23.81,12.01,47.61,27.59,67.67,24.68,31.78,60.62,48.68,101.65,48.68,8.77,0,17.78-.77,26.96-2.34Z"/></g></svg>