<?xml version="1.0" encoding="UTF-8"?><svg id="Camada_2" xmlns="http://www.w3.org/2000/svg" viewBox="0 0 278.39 280.4"><defs><style>.cls-1{fill:#d87352;}</style></defs><g id="Layer_1"><path class="cls-1" d="M244.36,42.64c24.32,23.13,37.11,64.83,33.39,108.83-3.97,46.92-25.1,86.49-57.98,108.59-51.7,34.76-117.73,19.71-162.28-5.95-.64-.36-.85-1.17-.49-1.8,.36-.63,1.17-.85,1.8-.49,43.86,25.27,108.79,40.13,159.5,6.05,32.21-21.65,52.91-60.51,56.81-106.63,3.65-43.21-8.83-84.09-32.58-106.69-15.64-14.89-38.87-27.48-65.09-34.88,3.14,1.17,6.25,2.5,9.33,3.99,14.61,7.09,31.3,19.41,44.53,40.81,17.75,17.52,28.77,42.47,34.56,76.08,5.99,34.68,.09,66.54-16.59,89.74-13.98,19.44-34.74,31.77-60.01,35.65-4.44,.68-8.79,1.21-13.08,1.6-2.48,.68-5.01,1.3-7.59,1.86-56.17,12.2-106.76-4.45-138.8-45.7C10.1,188.35,.19,157.11,.98,127.27-3.48,91.81,7.39,58.09,32.43,34.78,59.12,9.95,93.31,0,127.25,0c46.01,0,91.54,18.31,117.11,42.64ZM12.44,79.96c9.24-18.47,23.35-32.88,41.51-42.81,6.41-6.76,13.64-12.71,21.58-17.63C90.73,10.12,111.59,3.39,133.95,2.71,98.51,1.34,62.16,10.73,34.23,36.71,13.83,55.7,3.09,81.8,2.66,110.09c1.81-10.53,5.05-20.69,9.77-30.13ZM127.96,21.14c42.12,.73,73.18,8.92,95.39,26.32-11.79-15.81-25.5-25.5-37.71-31.43C147.13-2.65,103.29,5.45,76.93,21.77c-5.37,3.33-10.4,7.17-15.08,11.45,18.61-8.36,40.87-12.51,66.1-12.08ZM28.87,166.33c18.53,51.67,73.03,86.34,126.76,80.66,.73-.08,1.37,.45,1.45,1.17,.08,.72-.45,1.38-1.17,1.45-54.92,5.82-110.59-29.61-129.52-82.39-15.01-41.85-5.31-90.37,21.79-123.53-14.33,9.38-25.62,21.95-33.37,37.44-7.04,14.07-10.72,29.78-11.18,45.91,1.78,14.14,6.07,28.58,12.92,42.72,21.76,44.92,76.05,92.52,159.17,85.15,56.32-15.54,82.92-61.68,75.07-130.82-3.32-29.16-11.27-51.07-21.3-67.55-22.12-21.87-54.93-31.97-101.57-32.78-28.07-.5-52.42,4.79-71.99,15.31C25.63,71.49,13.46,123.39,28.87,166.33Zm218.27,52.41c16.26-22.61,21.99-53.77,16.13-87.74-4.77-27.59-13.1-49.21-25.93-65.6,7.52,15.33,13.34,34.49,16.06,58.42,7.42,65.22-15.3,110.43-64.3,129.48,24.46-3.82,44.52-15.76,58.04-34.55Zm-86.89,39.59c-.51,0-1.02,0-1.53,0-74.76,0-123.96-44.9-144.55-87.4-4.23-8.73-7.5-17.57-9.83-26.4,2.64,23.76,11.99,47.52,27.53,67.54,24.64,31.72,60.5,48.59,101.46,48.59,8.75,0,17.75-.77,26.91-2.33Z"/></g></svg>