<svg width="40" height="121" viewBox="0 0 40 121" fill="none" xmlns="http://www.w3.org/2000/svg">
<rect x="1" y="1" width="38" height="119" rx="19" stroke="#F37E11" stroke-width="2"/>
<path d="M21 21C21 20.4477 20.5523 20 20 20C19.4477 20 19 20.4477 19 21H21ZM19.2929 99.7071C19.6834 100.098 20.3166 100.098 20.7071 99.7071L27.0711 93.3431C27.4616 92.9526 27.4616 92.3195 27.0711 91.9289C26.6805 91.5384 26.0474 91.5384 25.6569 91.9289L20 97.5858L14.3431 91.9289C13.9526 91.5384 13.3195 91.5384 12.9289 91.9289C12.5384 92.3195 12.5384 92.9526 12.9289 93.3431L19.2929 99.7071ZM19 21L19 99H21L21 21H19Z" fill="#F37E11"/>
</svg>
