<svg width="209" height="208" viewBox="0 0 209 208" fill="none" xmlns="http://www.w3.org/2000/svg">
<path d="M96.814 13.038C100.194 7.26898 108.533 7.26898 111.913 13.038V13.038C114.703 17.7999 121.151 18.8212 125.276 15.1544V15.1544C130.273 10.7122 138.204 13.2892 139.635 19.8202V19.8202C140.817 25.2112 146.634 28.175 151.69 25.9623V25.9623C157.815 23.2817 164.562 28.1834 163.905 34.8372V34.8372C163.363 40.3296 167.98 44.9458 173.472 44.4038V44.4038C180.126 43.7473 185.027 50.4939 182.347 56.6191V56.6191C180.134 61.6752 183.098 67.492 188.489 68.6737V68.6737C195.02 70.1054 197.597 78.0365 193.155 83.0336V83.0336C189.488 87.1585 190.509 93.6064 195.271 96.3963V96.3963C201.04 99.7761 201.04 108.115 195.271 111.495V111.495C190.509 114.285 189.488 120.733 193.155 124.858V124.858C197.597 129.855 195.02 137.786 188.489 139.218V139.218C183.098 140.399 180.134 146.216 182.347 151.272V151.272C185.027 157.398 180.126 164.144 173.472 163.488V163.488C167.98 162.946 163.363 167.562 163.905 173.054V173.054C164.562 179.708 157.815 184.61 151.69 181.929V181.929C146.634 179.716 140.817 182.68 139.635 188.071V188.071C138.204 194.602 130.273 197.179 125.276 192.737V192.737C121.151 189.07 114.703 190.092 111.913 194.853V194.853C108.533 200.622 100.194 200.622 96.814 194.853V194.853C94.0241 190.092 87.5762 189.07 83.4514 192.737V192.737C78.4543 197.179 70.5231 194.602 69.0915 188.071V188.071C67.9097 182.68 62.0929 179.716 57.0368 181.929V181.929C50.9116 184.61 44.165 179.708 44.8216 173.054V173.054C45.3636 167.562 40.7473 162.946 35.255 163.488V163.488C28.6012 164.144 23.6995 157.398 26.3801 151.272V151.272C28.5928 146.216 25.629 140.399 20.2379 139.218V139.218C13.7069 137.786 11.1299 129.855 15.5721 124.858V124.858C19.2389 120.733 18.2177 114.285 13.4557 111.495V111.495C7.68671 108.115 7.68671 99.7761 13.4557 96.3963V96.3963C18.2177 93.6064 19.2389 87.1585 15.5721 83.0336V83.0336C11.1299 78.0365 13.7069 70.1054 20.2379 68.6737V68.6737C25.629 67.492 28.5928 61.6752 26.3801 56.6191V56.6191C23.6995 50.4939 28.6012 43.7473 35.255 44.4038V44.4038C40.7473 44.9458 45.3636 40.3296 44.8216 34.8372V34.8372C44.165 28.1834 50.9116 23.2817 57.0368 25.9623V25.9623C62.0929 28.175 67.9097 25.2112 69.0915 19.8202V19.8202C70.5231 13.2892 78.4543 10.7122 83.4514 15.1544V15.1544C87.5762 18.8212 94.0241 17.7999 96.814 13.038V13.038Z" fill="#1C78B4"/>
<path d="M80.8161 97.86C81.8761 96.56 82.3961 95 82.3961 93.16C82.3961 92.06 82.1961 91.04 81.8161 90.1C81.4161 89.16 80.8361 88.34 80.0961 87.66C79.4161 87.04 78.6561 86.56 77.7961 86.26C76.9161 85.94 75.9761 85.78 74.9361 85.78C73.9161 85.78 72.9761 85.94 72.1161 86.26C71.2561 86.56 70.4961 87.04 69.8161 87.66C69.0561 88.34 68.4961 89.16 68.0961 90.1C67.6961 91.04 67.5161 92.06 67.5161 93.16C67.5161 95.04 68.0561 96.66 69.1561 97.98C70.2761 99.32 71.7361 100.12 73.5361 100.38C73.6961 101.24 74.0761 101.94 74.6961 102.44C75.3161 102.94 76.0961 103.2 76.9961 103.2C78.0561 103.2 78.8961 102.92 79.5161 102.34C80.1161 101.76 80.4361 100.98 80.4361 99.98V99.8H79.6561C79.6361 100.34 79.4961 100.78 79.2161 101.06C78.9561 101.36 78.5561 101.52 78.0561 101.52C77.6961 101.52 77.3761 101.42 77.1361 101.22C76.8961 101.02 76.6961 100.74 76.5761 100.34C78.3561 100 79.7561 99.16 80.8161 97.86ZM77.3961 97.94C77.2161 98.84 76.8761 99.36 76.3961 99.48C76.4361 98.96 76.4561 98.48 76.4561 98.02C76.4761 97.58 76.4761 97.18 76.4761 96.84C76.4761 95.42 76.2761 94.38 75.8361 93.72C75.4161 93.06 74.7361 92.72 73.8161 92.72C73.4761 92.72 73.1561 92.78 72.8561 92.92C72.5761 93.04 72.3161 93.2 72.0761 93.44C72.0761 93.3 72.0761 93.1 72.0561 92.84C72.0561 92.6 72.0561 92.4 72.0561 92.28C72.0561 90.1 72.2561 88.6 72.6761 87.78C73.1161 86.94 73.8361 86.54 74.8761 86.54C75.9361 86.54 76.6561 86.94 77.0561 87.74C77.4761 88.56 77.6761 90.16 77.6761 92.56C77.6761 95.24 77.5761 97.04 77.3961 97.94ZM74.0161 97.22C73.7161 98.14 73.5161 98.88 73.4561 99.4C73.0361 99.14 72.7161 98.72 72.4961 98.14C72.2561 97.58 72.1361 96.9 72.1361 96.14C72.1361 95.32 72.2361 94.74 72.4361 94.36C72.6361 93.98 72.9561 93.78 73.3961 93.78C73.6961 93.78 73.9561 93.92 74.1761 94.18C74.3761 94.44 74.4961 94.76 74.4961 95.16C74.4961 95.6 74.3361 96.28 74.0161 97.22Z" fill="#FDF9EE"/>
<path d="M93.5973 86V86.16C94.4773 87.58 94.9573 89.2 94.9573 90.84V95.12C94.9573 95.76 94.8973 96.36 94.7573 96.92C94.6373 97.48 94.4173 97.96 94.1373 98.36C93.8573 98.76 93.4773 99.08 93.0373 99.32C92.5973 99.54 92.0573 99.66 91.4173 99.66C90.8973 99.66 90.4373 99.56 90.0373 99.36C89.6373 99.18 89.2973 98.9 89.0373 98.54C88.7573 98.16 88.5573 97.72 88.4173 97.2C88.2773 96.68 88.1973 96.1 88.1973 95.44V90.42C88.1973 88.92 88.6173 87.46 89.3973 86.16V86H83.0773V86.16C83.8573 87.46 84.2773 88.92 84.2773 90.42V95.18C84.2773 95.98 84.4173 96.7 84.6973 97.32C84.9773 97.96 85.3973 98.5 85.9173 98.92C86.4373 99.36 87.0573 99.68 87.7773 99.92C88.4973 100.14 89.2973 100.26 90.1773 100.24C91.1973 100.24 92.0573 100.12 92.7373 99.9C93.4373 99.68 93.9973 99.34 94.3973 98.86C94.8173 98.4 95.1173 97.82 95.2973 97.12C95.4573 96.42 95.5573 95.58 95.5573 94.62V90.86C95.5573 89.2 96.0373 87.58 96.9173 86.16V86H93.5973Z" fill="#FDF9EE"/>
<path d="M108.912 96.6C107.232 98.34 105.192 99.44 102.752 99.44V93.1C104.012 93.1 105.212 93.58 106.112 94.44L106.672 94.98H106.872V90.86H106.672L106.192 91.26C105.232 92.08 104.012 92.52 102.752 92.52V86.58C104.852 86.58 106.832 87.52 108.132 89.12L108.852 89.98H108.952V86H97.6318V86.16C98.4118 87.46 98.8118 88.92 98.8118 90.42V95.58C98.8118 97.08 98.4118 98.56 97.6318 99.86V100.02H109.012V96.6C108.992 96.6 108.912 96.6 108.912 96.6Z" fill="#FDF9EE"/>
<path d="M122.591 96.9L121.951 95.76C121.231 94.48 120.791 93.7 119.631 93.24C119.811 93.2 119.991 93.16 120.171 93.1C120.751 92.92 121.251 92.68 121.691 92.38C122.151 92.08 122.511 91.7 122.771 91.24C123.051 90.8 123.191 90.24 123.191 89.6C123.191 89.06 123.051 88.58 122.811 88.14C122.571 87.7 122.191 87.32 121.691 87C121.191 86.68 120.571 86.44 119.831 86.26C119.071 86.1 118.211 86.02 117.211 86.02H110.151V86.16C110.931 87.46 111.331 88.92 111.331 90.42V95.6C111.331 97.1 110.931 98.56 110.151 99.86V100.02H116.471V99.86C115.691 98.56 115.271 97.1 115.271 95.6V93.48C116.271 93.78 116.791 94.58 117.511 96.14L119.331 99.96H124.671V99.72C124.671 99.72 123.871 99.14 122.591 96.9ZM115.271 93.1V87.28C115.271 86.9 115.591 86.58 115.971 86.58C116.551 86.58 117.031 86.66 117.431 86.8C117.831 86.94 118.151 87.14 118.391 87.42C118.631 87.68 118.791 88 118.891 88.38C119.011 88.76 119.051 89.2 119.051 89.68C119.051 90.16 119.011 90.6 118.911 91.02C118.811 91.42 118.651 91.76 118.451 92.06C118.231 92.36 117.951 92.6 117.611 92.78C117.291 92.94 116.931 93.04 116.491 93.08L115.271 93.1Z" fill="#FDF9EE"/>
<path d="M138.946 90.1C138.586 89.22 138.066 88.46 137.406 87.82C136.746 87.18 135.946 86.68 135.026 86.34C134.106 85.98 133.106 85.8 132.006 85.8C130.906 85.8 129.886 85.98 128.986 86.34C128.066 86.7 127.286 87.2 126.646 87.84C125.986 88.48 125.486 89.24 125.126 90.14C124.766 91.02 124.586 91.98 124.586 93.04C124.586 94.1 124.766 95.06 125.126 95.94C125.486 96.82 125.986 97.58 126.646 98.22C127.286 98.86 128.066 99.36 128.986 99.72C129.886 100.06 130.906 100.24 132.006 100.24C132.746 100.24 133.446 100.16 134.106 100C134.766 99.84 135.366 99.6 135.926 99.3C136.466 99.02 136.966 98.64 137.406 98.22C137.866 97.8 138.226 97.3 138.546 96.78C138.846 96.24 139.086 95.64 139.246 95.02C139.406 94.38 139.486 93.72 139.486 93C139.486 91.96 139.306 90.98 138.946 90.1ZM135.086 95.84C134.966 96.66 134.766 97.36 134.486 97.92C134.226 98.5 133.886 98.92 133.466 99.22C133.046 99.52 132.566 99.66 132.006 99.66C131.446 99.66 130.966 99.52 130.566 99.22C130.146 98.92 129.826 98.5 129.546 97.92C129.286 97.36 129.086 96.66 128.966 95.84C128.846 95.02 128.786 94.08 128.786 93.04C128.786 91.98 128.846 91.04 128.966 90.22C129.086 89.4 129.286 88.7 129.546 88.12C129.806 87.56 130.146 87.12 130.546 86.82C130.946 86.52 131.446 86.36 132.006 86.36C132.566 86.36 133.066 86.52 133.466 86.82C133.886 87.12 134.226 87.56 134.486 88.12C134.766 88.7 134.946 89.38 135.086 90.22C135.206 91.04 135.286 91.98 135.286 93.04C135.286 94.08 135.206 95.02 135.086 95.84Z" fill="#FDF9EE"/>
<path d="M54.2441 107.42C53.9841 106.94 53.6041 106.5 53.1241 106.14C52.6241 105.78 51.9841 105.5 51.2441 105.3C50.4841 105.1 49.6041 105 48.5841 105H41.7041V105.16C42.4841 106.46 42.8841 107.92 42.8841 109.42V114.6C42.8841 116.1 42.4841 117.56 41.7041 118.86V119.02H48.2241V118.86C47.3041 117.58 46.8241 116.06 46.8241 114.5V113.4L48.2641 113.38C49.3041 113.38 50.2241 113.28 51.0241 113.08C51.8041 112.86 52.4641 112.56 53.0041 112.18C53.5441 111.8 53.9441 111.34 54.2041 110.82C54.4641 110.28 54.6041 109.7 54.6041 109.06C54.6041 108.48 54.4841 107.92 54.2441 107.42ZM50.2441 110.8C50.0841 111.28 49.8841 111.66 49.6241 111.94C49.3841 112.22 49.1241 112.44 48.8241 112.56C48.5441 112.7 48.2641 112.78 48.0041 112.8L46.8241 112.84V106.04C46.8241 105.78 47.0441 105.58 47.3041 105.58C47.8841 105.58 48.3641 105.66 48.7641 105.8C49.1641 105.96 49.5041 106.2 49.7441 106.48C50.0041 106.78 50.1841 107.16 50.3041 107.58C50.4241 108.02 50.4841 108.5 50.4841 109.04C50.4841 109.76 50.4041 110.34 50.2441 110.8Z" fill="#FDF9EE"/>
<path d="M65.4805 114.62L61.7005 105H57.1805V105.16C57.9805 106.52 58.1005 108.14 57.5405 109.6L55.6205 114.56C55.0005 116.14 54.1005 117.58 52.9805 118.86V119.02H57.3005V118.86L56.9005 118.44C56.3805 117.82 55.6005 116.6 56.0805 115.1L56.2205 114.72H61.3205C61.8205 116.08 61.5805 117.6 60.7005 118.74L60.6005 118.86V119.02H67.8805V118.86C66.8805 117.56 66.0805 116.14 65.4805 114.62ZM56.4405 114.16L58.8205 107.94L58.8605 108.02L61.1205 114.16H56.4405Z" fill="#FDF9EE"/>
<path d="M80.7457 115.9L80.1057 114.76C79.3857 113.48 78.9457 112.7 77.7857 112.24C77.9657 112.2 78.1457 112.16 78.3257 112.1C78.9057 111.92 79.4057 111.68 79.8457 111.38C80.3057 111.08 80.6657 110.7 80.9257 110.24C81.2057 109.8 81.3457 109.24 81.3457 108.6C81.3457 108.06 81.2057 107.58 80.9657 107.14C80.7257 106.7 80.3457 106.32 79.8457 106C79.3457 105.68 78.7257 105.44 77.9857 105.26C77.2257 105.1 76.3657 105.02 75.3657 105.02H68.3057V105.16C69.0857 106.46 69.4857 107.92 69.4857 109.42V114.6C69.4857 116.1 69.0857 117.56 68.3057 118.86V119.02H74.6257V118.86C73.8457 117.56 73.4257 116.1 73.4257 114.6V112.48C74.4257 112.78 74.9457 113.58 75.6657 115.14L77.4857 118.96H82.8257V118.72C82.8257 118.72 82.0257 118.14 80.7457 115.9ZM73.4257 112.1V106.28C73.4257 105.9 73.7457 105.58 74.1257 105.58C74.7057 105.58 75.1857 105.66 75.5857 105.8C75.9857 105.94 76.3057 106.14 76.5457 106.42C76.7857 106.68 76.9457 107 77.0457 107.38C77.1657 107.76 77.2057 108.2 77.2057 108.68C77.2057 109.16 77.1657 109.6 77.0657 110.02C76.9657 110.42 76.8057 110.76 76.6057 111.06C76.3857 111.36 76.1057 111.6 75.7657 111.78C75.4457 111.94 75.0857 112.04 74.6457 112.08L73.4257 112.1Z" fill="#FDF9EE"/>
<path d="M82.8308 105V108.86H82.9308L84.7108 106.7C85.3108 106 86.2108 105.58 87.1508 105.58V114.6C87.1508 116.1 86.7308 117.56 85.9508 118.86V119.02H92.2708V118.86C91.4908 117.56 91.0908 116.1 91.0908 114.6V105.58C92.0508 105.58 92.9508 106 93.5508 106.72L95.3308 108.86H95.4308V105H82.8308Z" fill="#FDF9EE"/>
<path d="M102.438 105.16V105H96.1182V105.16C96.8982 106.46 97.2982 107.92 97.2982 109.42V114.6C97.2982 116.1 96.8982 117.56 96.1182 118.86V119.02H102.438V118.86C101.658 117.56 101.238 116.1 101.238 114.6V109.42C101.238 107.92 101.658 106.46 102.438 105.16Z" fill="#FDF9EE"/>
<path d="M115.59 115.04C115.49 115.28 115.37 115.54 115.21 115.8C115.07 116.08 114.89 116.36 114.69 116.64C114.49 116.92 114.25 117.18 113.99 117.42C113.75 117.68 113.45 117.9 113.15 118.08C112.83 118.28 112.49 118.44 112.13 118.54L112.05 118.58C111.87 118.62 111.71 118.64 111.57 118.64C111.41 118.66 111.29 118.66 111.17 118.66C110.57 118.66 110.05 118.52 109.57 118.22C109.11 117.94 108.71 117.5 108.37 116.94C108.05 116.38 107.79 115.68 107.63 114.88C107.45 114.06 107.37 113.14 107.37 112.12C107.37 111.1 107.43 110.16 107.59 109.34C107.75 108.5 107.97 107.8 108.29 107.22C108.61 106.62 109.01 106.18 109.47 105.86C109.95 105.54 110.49 105.36 111.13 105.36C111.27 105.36 111.41 105.38 111.57 105.4C111.73 105.42 111.89 105.44 112.09 105.46L112.13 105.48C112.67 105.64 113.17 105.9 113.59 106.26C114.01 106.6 114.39 106.98 114.69 107.38C114.99 107.8 115.23 108.22 115.43 108.62C115.61 109.02 115.75 109.38 115.83 109.66H116.05L115.75 105.5C114.95 105.28 114.15 105.12 113.39 105C112.61 104.86 111.83 104.8 111.05 104.8H110.91C109.73 104.8 108.67 104.98 107.71 105.36C106.75 105.72 105.93 106.24 105.27 106.9C104.59 107.56 104.07 108.34 103.71 109.24C103.35 110.14 103.17 111.12 103.17 112.18C103.17 113.22 103.35 114.18 103.75 115.04C104.13 115.92 104.69 116.66 105.37 117.28C106.07 117.9 106.89 118.38 107.85 118.72C108.81 119.08 109.87 119.24 110.99 119.24C111.03 119.24 111.15 119.24 111.19 119.24C111.21 119.24 111.25 119.24 111.29 119.24C112.03 119.22 112.77 119.14 113.51 119.02C114.25 118.9 114.99 118.74 115.75 118.54L116.05 114.38H115.83C115.77 114.58 115.69 114.78 115.59 115.04Z" fill="#FDF9EE"/>
<path d="M123.591 105.16V105H117.271V105.16C118.051 106.46 118.451 107.92 118.451 109.42V114.6C118.451 116.1 118.051 117.56 117.271 118.86V119.02H123.591V118.86C122.811 117.56 122.391 116.1 122.391 114.6V109.42C122.391 107.92 122.811 106.46 123.591 105.16Z" fill="#FDF9EE"/>
<path d="M137.076 107.42C136.816 106.94 136.436 106.5 135.956 106.14C135.456 105.78 134.816 105.5 134.076 105.3C133.316 105.1 132.436 105 131.416 105H124.536V105.16C125.316 106.46 125.716 107.92 125.716 109.42V114.6C125.716 116.1 125.316 117.56 124.536 118.86V119.02H131.056V118.86C130.136 117.58 129.656 116.06 129.656 114.5V113.4L131.096 113.38C132.136 113.38 133.056 113.28 133.856 113.08C134.636 112.86 135.296 112.56 135.836 112.18C136.376 111.8 136.776 111.34 137.036 110.82C137.296 110.28 137.436 109.7 137.436 109.06C137.436 108.48 137.316 107.92 137.076 107.42ZM133.076 110.8C132.916 111.28 132.716 111.66 132.456 111.94C132.216 112.22 131.956 112.44 131.656 112.56C131.376 112.7 131.096 112.78 130.836 112.8L129.656 112.84V106.04C129.656 105.78 129.876 105.58 130.136 105.58C130.716 105.58 131.196 105.66 131.596 105.8C131.996 105.96 132.336 106.2 132.576 106.48C132.836 106.78 133.016 107.16 133.136 107.58C133.256 108.02 133.316 108.5 133.316 109.04C133.316 109.76 133.236 110.34 133.076 110.8Z" fill="#FDF9EE"/>
<path d="M148.313 114.62L144.533 105H140.013V105.16C140.813 106.52 140.933 108.14 140.373 109.6L138.453 114.56C137.833 116.14 136.933 117.58 135.813 118.86V119.02H140.133V118.86L139.733 118.44C139.213 117.82 138.433 116.6 138.913 115.1L139.053 114.72H144.153C144.653 116.08 144.413 117.6 143.533 118.74L143.433 118.86V119.02H150.713V118.86C149.713 117.56 148.913 116.14 148.313 114.62ZM139.273 114.16L141.653 107.94L141.693 108.02L143.953 114.16H139.273Z" fill="#FDF9EE"/>
<path d="M163.578 115.9L162.938 114.76C162.218 113.48 161.778 112.7 160.618 112.24C160.798 112.2 160.978 112.16 161.158 112.1C161.738 111.92 162.238 111.68 162.678 111.38C163.138 111.08 163.498 110.7 163.758 110.24C164.038 109.8 164.178 109.24 164.178 108.6C164.178 108.06 164.038 107.58 163.798 107.14C163.558 106.7 163.178 106.32 162.678 106C162.178 105.68 161.558 105.44 160.818 105.26C160.058 105.1 159.198 105.02 158.198 105.02H151.138V105.16C151.918 106.46 152.318 107.92 152.318 109.42V114.6C152.318 116.1 151.918 117.56 151.138 118.86V119.02H157.458V118.86C156.678 117.56 156.258 116.1 156.258 114.6V112.48C157.258 112.78 157.778 113.58 158.498 115.14L160.318 118.96H165.658V118.72C165.658 118.72 164.858 118.14 163.578 115.9ZM156.258 112.1V106.28C156.258 105.9 156.578 105.58 156.958 105.58C157.538 105.58 158.018 105.66 158.418 105.8C158.818 105.94 159.138 106.14 159.378 106.42C159.618 106.68 159.778 107 159.878 107.38C159.998 107.76 160.038 108.2 160.038 108.68C160.038 109.16 159.998 109.6 159.898 110.02C159.798 110.42 159.638 110.76 159.438 111.06C159.218 111.36 158.938 111.6 158.598 111.78C158.278 111.94 157.918 112.04 157.478 112.08L156.258 112.1Z" fill="#FDF9EE"/>
</svg>
