<svg width="455" height="400" viewBox="0 0 455 400" fill="none" xmlns="http://www.w3.org/2000/svg">
<path d="M323.406 363.2H307.071V363.49H323.406V363.2Z" fill="#EBEBEB"/>
<path d="M296.734 363.2H255.618V363.49H296.734V363.2Z" fill="#EBEBEB"/>
<path d="M147.41 16.2422H0V347.607H147.41V16.2422Z" fill="#F0F0F0"/>
<path d="M147.41 16.2422H3.10919V347.607H147.41V16.2422Z" fill="#F5F5F5"/>
<path d="M138.616 340.089L138.616 23.7601L11.9033 23.7601L11.9033 340.089H138.616Z" fill="#EBEBEB"/>
<path d="M116.271 65.8159V79.2853H34.2479V65.8159C34.2479 59.5605 36.7329 53.5613 41.1561 49.138C45.5794 44.7148 51.5786 42.2298 57.834 42.2298L92.6968 42.2298C98.9502 42.2329 104.946 44.7192 109.367 49.1421C113.788 53.565 116.271 59.5625 116.271 65.8159V65.8159Z" fill="#FAFAFA"/>
<path d="M126.167 308.417V256.859C126.167 250.228 120.791 244.852 114.16 244.852H36.371C29.7394 244.852 24.3634 250.228 24.3634 256.859V308.417C24.3634 315.049 29.7394 320.425 36.371 320.425H114.16C120.791 320.425 126.167 315.049 126.167 308.417Z" fill="#F0F0F0"/>
<path d="M36.3594 230.071H57.2539C63.8855 230.071 69.2615 224.695 69.2615 218.064L69.2615 110.876C69.2615 104.245 63.8855 98.8688 57.2539 98.8688H36.3594C29.7278 98.8688 24.3517 104.245 24.3517 110.876L24.3517 218.064C24.3517 224.695 29.7278 230.071 36.3594 230.071Z" fill="#F0F0F0"/>
<path d="M93.2653 230.071H114.16C120.791 230.071 126.167 224.695 126.167 218.064L126.167 110.876C126.167 104.245 120.791 98.8688 114.16 98.8688H93.2653C86.6336 98.8688 81.2576 104.245 81.2576 110.876L81.2576 218.064C81.2576 224.695 86.6336 230.071 93.2653 230.071Z" fill="#F0F0F0"/>
<path d="M116.271 167.701C116.271 169.19 116.713 170.646 117.54 171.884C118.368 173.122 119.543 174.088 120.919 174.657C122.295 175.227 123.809 175.376 125.27 175.086C126.73 174.795 128.072 174.078 129.125 173.025C130.178 171.972 130.895 170.631 131.185 169.17C131.476 167.709 131.327 166.196 130.757 164.82C130.187 163.444 129.222 162.268 127.984 161.441C126.746 160.613 125.29 160.172 123.801 160.172C122.812 160.172 121.833 160.366 120.919 160.745C120.006 161.123 119.176 161.678 118.477 162.377C117.777 163.076 117.223 163.906 116.844 164.82C116.466 165.733 116.271 166.712 116.271 167.701V167.701Z" fill="white"/>
<path d="M138.604 340.089L138.604 23.7601H136.319L136.319 340.089H138.604Z" fill="#F0F0F0"/>
<path d="M432.995 206.949H400.986V347.607H432.995V206.949Z" fill="#E6E6E6"/>
<path d="M421.045 347.607H432.983V328.186H408.527L421.045 347.607Z" fill="#EBEBEB"/>
<path d="M374.233 206.949H342.224V347.607H374.233V206.949Z" fill="#E6E6E6"/>
<path d="M432.983 206.949H363.803V340.925H432.983V206.949Z" fill="#EBEBEB"/>
<path d="M375.753 347.607H363.803V328.186H388.271L375.753 347.607Z" fill="#EBEBEB"/>
<path d="M423.725 256.871H373.073V290.4H423.725V256.871Z" fill="#FAFAFA"/>
<path d="M423.725 297.558H373.073V331.086H423.725V297.558Z" fill="#FAFAFA"/>
<path d="M390.951 253.959H405.836V255.931C405.836 257.128 405.36 258.276 404.514 259.122C403.667 259.969 402.519 260.444 401.323 260.444H395.522C394.325 260.444 393.177 259.969 392.331 259.122C391.484 258.276 391.009 257.128 391.009 255.931V253.959H390.951Z" fill="#EBEBEB"/>
<path d="M423.725 216.173H373.073V249.701H423.725V216.173Z" fill="#FAFAFA"/>
<path d="M390.951 213.272H405.836V215.244C405.836 216.441 405.36 217.589 404.514 218.436C403.667 219.282 402.519 219.758 401.323 219.758H395.522C394.325 219.758 393.177 219.282 392.331 218.436C391.484 217.589 391.009 216.441 391.009 215.244V213.272H390.951Z" fill="#EBEBEB"/>
<path d="M390.951 294.657H405.836V296.63C405.836 297.827 405.36 298.975 404.514 299.821C403.667 300.667 402.519 301.143 401.323 301.143H395.522C394.325 301.143 393.177 300.667 392.331 299.821C391.484 298.975 391.009 297.827 391.009 296.63V294.657H390.951Z" fill="#EBEBEB"/>
<path d="M218.69 347.607H175.196L175.973 187.725L218.69 202.483V347.607Z" fill="#EBEBEB"/>
<path d="M306.607 347.607H181.113L175.196 177.76H300.679L306.607 347.607Z" fill="#E0E0E0"/>
<path d="M315.633 347.607H185.045L179.129 177.76H309.705L315.633 347.607Z" fill="#F5F5F5"/>
<path d="M197.738 327.71L193.213 198.747C193.188 197.762 193.36 196.782 193.718 195.865C194.075 194.947 194.612 194.109 195.297 193.401C195.981 192.693 196.8 192.128 197.705 191.739C198.61 191.35 199.583 191.145 200.568 191.136H290.226C291.979 191.12 293.669 191.793 294.932 193.011C296.195 194.228 296.929 195.892 296.978 197.645L301.479 326.62C301.502 327.605 301.329 328.584 300.97 329.501C300.611 330.418 300.073 331.255 299.387 331.962C298.702 332.67 297.882 333.233 296.976 333.621C296.071 334.008 295.097 334.211 294.112 334.219H204.49C202.736 334.235 201.046 333.562 199.784 332.345C198.521 331.128 197.786 329.463 197.738 327.71V327.71Z" fill="white"/>
<path d="M423.517 0H195.232V117.768H423.517V0Z" fill="#E6E6E6"/>
<path d="M429.004 0H197.796V117.768H429.004V0Z" fill="#F0F0F0"/>
<path d="M423.517 117.779H195.232V120.471H423.517V117.779Z" fill="#E6E6E6"/>
<path d="M438.146 117.779H206.938V120.471H438.146V117.779Z" fill="#F0F0F0"/>
<path d="M421.312 110.088V7.68025L205.476 7.68025V110.088L421.312 110.088Z" fill="#FAFAFA"/>
<path d="M243.228 110.099L264.609 7.69186H297.975L276.594 110.099H243.228Z" fill="white"/>
<path d="M209.038 102.442C208.893 102.442 208.754 102.385 208.652 102.282C208.55 102.18 208.492 102.041 208.492 101.897V12.6806C208.492 12.5359 208.55 12.3972 208.652 12.295C208.754 12.1927 208.893 12.1353 209.038 12.1353C209.182 12.1353 209.321 12.1927 209.423 12.295C209.526 12.3972 209.583 12.5359 209.583 12.6806V101.897C209.583 102.041 209.526 102.18 209.423 102.282C209.321 102.385 209.182 102.442 209.038 102.442V102.442Z" fill="#F0F0F0"/>
<path d="M283.763 110.099L305.145 7.69186H318.151L296.769 110.099H283.763Z" fill="white"/>
<path d="M421.324 110.088V7.68025H420.349V110.088H421.324Z" fill="#E6E6E6"/>
<path opacity="0.6" d="M430.814 19.2703H202.541L201.833 10.6735H430.106L430.814 19.2703Z" fill="#EBEBEB"/>
<path opacity="0.6" d="M430.814 24.1197H202.541L201.833 15.5229H430.106L430.814 24.1197Z" fill="#EBEBEB"/>
<path opacity="0.6" d="M430.814 28.9692H202.541L201.833 20.3724H430.106L430.814 28.9692Z" fill="#EBEBEB"/>
<path opacity="0.6" d="M430.814 33.8187H202.541L201.833 25.2219H430.106L430.814 33.8187Z" fill="#EBEBEB"/>
<path opacity="0.6" d="M430.814 38.6681H202.541L201.833 30.0714H430.106L430.814 38.6681Z" fill="#EBEBEB"/>
<path opacity="0.6" d="M430.814 43.5176H202.541L201.833 34.9208H430.106L430.814 43.5176Z" fill="#EBEBEB"/>
<path d="M229.178 400C353.411 400 454.121 394.12 454.121 386.867C454.121 379.614 353.411 373.734 229.178 373.734C104.945 373.734 4.2345 379.614 4.2345 386.867C4.2345 394.12 104.945 400 229.178 400Z" fill="#F5F5F5"/>
<path d="M170.775 58.2631C167.028 50.3972 158.698 53.0192 159.394 46.3135C160.09 39.6078 153.385 30.2801 143.152 35.4196C132.919 40.5591 138.593 52.706 138.593 52.706C138.593 52.706 133.012 73.8789 142.502 80.5498C150.067 85.8285 166.425 81.1995 163.942 73.7281C161.459 66.2566 174.511 66.129 170.775 58.2631Z" fill="#263238"/>
<path d="M164.545 79.5637C164.487 79.5629 164.431 79.5448 164.384 79.5118C164.336 79.4787 164.299 79.4321 164.279 79.378C161.587 72.2315 165.23 68.7974 168.444 65.7694C170.984 63.3794 173.177 61.3143 172.017 57.8223C170.659 53.7617 167.782 52.7292 165.253 51.8126C162.724 50.8961 160.508 50.0956 160.717 46.5571C160.759 44.5543 160.294 42.5733 159.365 40.7985C158.436 39.0237 157.073 37.5126 155.403 36.4057C153.141 34.9787 149.394 33.865 144.382 36.6494C144.314 36.6863 144.235 36.6948 144.161 36.673C144.087 36.6513 144.024 36.601 143.987 36.5333C143.95 36.4656 143.942 36.3861 143.964 36.3121C143.985 36.2381 144.036 36.1758 144.103 36.1389C148.21 33.8186 152.329 33.8186 155.705 35.9184C157.471 37.0713 158.911 38.658 159.888 40.5268C160.865 42.3957 161.346 44.484 161.285 46.5919C161.1 49.7012 163.014 50.3857 165.439 51.2326C167.863 52.0795 171.1 53.2744 172.551 57.6018C173.838 61.442 171.39 63.7391 168.838 66.1638C165.601 69.2034 162.26 72.3591 164.812 79.1344C164.839 79.2083 164.835 79.2897 164.803 79.3612C164.77 79.4327 164.711 79.4887 164.638 79.5173L164.545 79.5637Z" fill="#263238"/>
<path d="M117.188 113.324C116.863 113.904 116.666 114.229 116.399 114.647L115.645 115.807C115.134 116.561 114.6 117.28 114.055 118C112.955 119.431 111.773 120.799 110.517 122.095C107.946 124.739 105.036 127.029 101.862 128.905C98.5646 130.848 94.9456 132.184 91.1768 132.85C89.2621 133.183 87.3187 133.323 85.376 133.267C84.4131 133.267 83.4618 133.198 82.522 133.059L81.8144 132.977H81.4547L80.9906 132.896C80.3646 132.79 79.7479 132.634 79.146 132.432C77.1262 131.71 75.2434 130.651 73.5772 129.3C72.1406 128.144 70.7948 126.879 69.5515 125.518C67.2667 122.983 65.191 120.267 63.3446 117.396C61.5231 114.577 59.8641 111.712 58.3327 108.811C56.8013 105.911 55.4091 103.011 54.1445 99.8549L58.9708 97.4069C60.6646 99.9941 62.4513 102.651 64.2611 105.18C66.071 107.709 67.9388 110.238 69.8995 112.605C71.7828 114.933 73.8175 117.134 75.9903 119.195C76.987 120.126 78.0536 120.979 79.1808 121.747C80.0537 122.364 81.0217 122.835 82.0464 123.139C82.209 123.185 82.3764 123.213 82.5453 123.221H82.9977H83.485C84.1303 123.255 84.7771 123.255 85.4224 123.221C86.7034 123.162 87.9767 122.991 89.2278 122.71C91.7524 122.099 94.1618 121.085 96.3628 119.705C98.6661 118.236 100.775 116.482 102.639 114.485C103.61 113.473 104.528 112.412 105.389 111.306C105.818 110.76 106.224 110.145 106.619 109.623L107.199 108.776L107.663 108.057L117.188 113.324Z" fill="#B65B52"/>
<path d="M117.454 101.444C107.697 101.92 105.296 108.196 105.296 108.196L116.561 125.367C116.561 125.367 121.376 120.192 122.675 114.403C124.021 108.37 124.079 101.119 117.454 101.444Z" fill="#263238"/>
<path d="M59.4697 98.95L58.9476 89.6687L49.8984 96.4092C49.8984 96.4092 52.1375 101.189 56.4417 102.21L59.4697 98.95Z" fill="#B55B52"/>
<path d="M53.3208 82.3365L47.4968 88.5781L49.8984 96.4092L58.9476 89.6687L53.3208 82.3365Z" fill="#B55B52"/>
<path d="M168.966 375.567L158.431 376.576L153.06 352.027L163.606 351.018L168.966 375.567Z" fill="#B55B52"/>
<path d="M265.816 343.778L257.671 350.867L239.039 334.671L247.184 327.571L265.816 343.778Z" fill="#B55B52"/>
<path d="M253.541 348.384L260.827 338.685C260.947 338.515 261.125 338.393 261.328 338.344C261.531 338.295 261.745 338.321 261.929 338.419L270.306 342.908C270.513 343.03 270.691 343.196 270.829 343.392C270.967 343.589 271.061 343.814 271.105 344.05C271.149 344.286 271.142 344.529 271.084 344.763C271.026 344.996 270.919 345.214 270.77 345.403C268.171 348.744 266.756 350.229 263.553 354.498C261.581 357.12 257.59 363.211 254.875 366.831C252.161 370.451 248.483 367.991 249.295 366.286C252.95 358.466 253.147 353.884 252.973 350.206C252.945 349.551 253.146 348.907 253.541 348.384V348.384Z" fill="#263238"/>
<path d="M157.109 373.397H169.778C170.005 373.397 170.226 373.472 170.407 373.611C170.587 373.749 170.717 373.943 170.775 374.163L173.537 384.187C173.604 384.424 173.614 384.673 173.568 384.914C173.521 385.156 173.419 385.383 173.269 385.578C173.119 385.773 172.926 385.93 172.704 386.037C172.483 386.144 172.24 386.198 171.994 386.194C167.562 386.113 165.404 385.858 159.823 385.858C156.401 385.858 147.537 386.217 142.804 386.217C138.071 386.217 137.2 381.577 139.126 381.112C147.711 379.21 152.665 376.588 155.368 374.082C155.844 373.646 156.464 373.402 157.109 373.397V373.397Z" fill="#263238"/>
<path opacity="0.2" d="M153.071 352.027L155.833 364.685H166.599L163.606 351.018L153.071 352.027Z" fill="black"/>
<path opacity="0.2" d="M247.184 327.583L239.039 334.683L248.645 343.024L256.79 335.924L247.184 327.583Z" fill="black"/>
<path d="M110.053 103.509C110.053 103.509 105.563 106.595 130.866 164.244L172.922 152.642C167.875 135.831 165.172 125.344 164.441 88.1721C158.234 88.5836 152.065 89.4444 145.983 90.7476C139.501 92.0534 133.119 93.8174 126.887 96.0263C118.87 98.9848 110.053 103.509 110.053 103.509Z" fill="#263238"/>
<path d="M138.685 69.8647C139.033 76.3036 140.692 87.824 146.029 90.7476C146.029 90.7476 150.241 110.145 134.845 129.822C118.603 115.552 126.933 96.0263 126.933 96.0263C133.372 92.5459 131.91 87.4992 129.497 83.0906L138.685 69.8647Z" fill="#B55B52"/>
<path d="M145.983 90.7476C145.983 90.7476 150.194 110.145 134.799 129.822C118.557 115.552 126.887 96.0264 126.887 96.0264C126.887 96.0264 129.276 102.024 134.126 104.078C137.224 102.28 143.477 96.618 145.983 90.7476Z" fill="#F5F5F5"/>
<path d="M135.391 103.219C135.391 103.219 144.045 100.075 150.473 102.396C151.041 98.9151 151.853 91.5829 149.127 89.6339C148.016 89.6684 146.939 90.0273 146.029 90.6664L135.391 103.219Z" fill="white"/>
<path d="M132.885 103.347C132.885 103.347 127.211 102.024 121.596 107.57C121.19 104.089 121.457 98.2886 124.265 96.3048C125.247 95.8035 126.312 95.4851 127.409 95.365C128.761 98.3208 130.614 101.021 132.885 103.347V103.347Z" fill="white"/>
<path opacity="0.2" d="M137.641 71.2801C138.472 74.9577 138.512 78.77 137.757 82.4641C137.224 85.0164 134.451 86.8843 131.365 87.9748C130.997 86.2368 130.355 84.5685 129.462 83.0326L137.641 71.2801Z" fill="black"/>
<path d="M120.297 48.0073C111.224 60.4674 120.204 77.0113 127.977 76.6633C133.778 76.4428 141.331 69.099 140.391 62.4977C138.987 52.6015 124.856 41.7425 120.297 48.0073Z" fill="#263238"/>
<path d="M147.677 62.3005C145.519 72.7419 144.823 77.1853 138.755 81.9304C129.625 89.0654 117.35 84.4247 116.364 73.6353C115.482 63.9247 119.172 48.5062 130.019 45.5826C132.379 44.9056 134.875 44.8556 137.26 45.4376C139.645 46.0196 141.837 47.2135 143.62 48.9014C145.402 50.5894 146.714 52.713 147.426 55.0627C148.137 57.4125 148.224 59.9071 147.677 62.3005V62.3005Z" fill="#B55B52"/>
<path d="M138.685 46.1627C138.256 49.2255 144.486 57.8339 151.447 57.7643C154.835 57.7643 155.879 52.5667 152.607 47.8681C148.21 41.6496 139.358 41.7657 138.685 46.1627Z" fill="#18955C"/>
<path d="M124.427 48.1465C123.673 53.4717 134.868 67.5444 146.83 67.3472C152.7 67.2544 153.791 53.8777 149.452 48.8542C141.006 39.0277 125.506 40.5359 124.427 48.1465Z" fill="#263238"/>
<path d="M143.43 64.3192C139.776 65.0617 141.899 70.0039 144.115 72.5099C146.946 70.584 149.208 63.1474 143.43 64.3192Z" fill="#263238"/>
<path d="M133.813 52.5552C125.077 56.1865 116.503 46.9052 114.009 42.7982C120.32 43.7031 133.349 35.0947 138.709 45.9886C142.479 53.6225 133.813 52.5552 133.813 52.5552Z" fill="#263238"/>
<path d="M131.864 51.9171C125.924 57.0914 116.631 52.1723 113.545 49.5967C118.789 48.599 126.794 38.378 133.975 45.4202C139.022 50.4205 131.864 51.9171 131.864 51.9171Z" fill="#263238"/>
<path d="M150.217 70.1896C149.704 72.1945 148.431 73.9211 146.667 75.0042C144.347 76.4196 142.468 74.5286 142.549 71.953C142.618 69.6327 143.929 66.1522 146.563 65.7346C147.135 65.658 147.717 65.7289 148.254 65.9405C148.791 66.1521 149.265 66.4974 149.632 66.9437C149.998 67.39 150.244 67.9225 150.346 68.4905C150.449 69.0586 150.404 69.6434 150.217 70.1896Z" fill="#B55B52"/>
<path d="M130.866 164.186C130.866 164.186 126.515 248.599 132.548 280.469C138.825 313.626 150.658 361.007 150.658 361.007L170.683 360.032C170.683 360.032 163.2 299.924 161.401 274.297C158.965 238.981 161.633 155.659 161.633 155.659L130.866 164.186Z" fill="#18955C"/>
<path opacity="0.4" d="M130.866 164.186C130.866 164.186 126.515 248.599 132.548 280.469C138.825 313.626 150.658 361.007 150.658 361.007L170.683 360.032C170.683 360.032 163.2 299.924 161.401 274.297C158.965 238.981 161.633 155.659 161.633 155.659L130.866 164.186Z" fill="black"/>
<path opacity="0.2" d="M160.879 187.424C157.944 179.604 155.31 175.3 154.788 183.085C153.698 199.559 156.146 218.388 160.415 227.728C160.45 213.725 160.659 199.513 160.879 187.424Z" fill="black"/>
<path d="M172.086 361.007L149.266 362.109L146.563 353.767L171.297 351.83L172.086 361.007Z" fill="#18955C"/>
<path d="M141.969 161.111C141.969 161.111 166.019 230.071 182.423 268.148C195.672 298.904 244.132 341.876 244.132 341.876L255.583 332.374C255.583 332.374 220.964 283.392 211.799 262.533C182.447 195.754 191.159 167.469 172.922 152.549L141.969 161.111Z" fill="#18955C"/>
<path opacity="0.4" d="M141.969 161.111C141.969 161.111 166.019 230.071 182.423 268.148C195.672 298.904 244.132 341.876 244.132 341.876L255.583 332.374C255.583 332.374 220.964 283.392 211.799 262.533C182.447 195.754 191.159 167.469 172.922 152.549L141.969 161.111Z" fill="black"/>
<path d="M256.511 332.27L243.692 343.361L237.415 338.732L252.509 326.109L256.511 332.27Z" fill="#18955C"/>
<path d="M172.922 149.916L175.776 153.141C175.996 153.385 175.776 153.779 175.242 153.907L131.156 166.112C130.785 166.216 130.425 166.112 130.332 165.891L128.998 162.26C128.905 162.005 129.184 161.691 129.601 161.575L172.191 149.8C172.313 149.756 172.443 149.743 172.571 149.764C172.699 149.784 172.82 149.836 172.922 149.916V149.916Z" fill="#18955C"/>
<path d="M168.42 156.239L169.58 155.914C169.813 155.914 169.952 155.693 169.894 155.554L168.119 150.844C168.119 150.705 167.84 150.647 167.62 150.705L166.46 151.018C166.239 151.088 166.088 151.25 166.146 151.389L167.921 156.099C167.956 156.239 168.188 156.297 168.42 156.239Z" fill="#18955C"/>
<path opacity="0.4" d="M168.42 156.239L169.58 155.914C169.813 155.914 169.952 155.693 169.894 155.554L168.119 150.844C168.119 150.705 167.84 150.647 167.62 150.705L166.46 151.018C166.239 151.088 166.088 151.25 166.146 151.389L167.921 156.099C167.956 156.239 168.188 156.297 168.42 156.239Z" fill="black"/>
<path d="M134.451 165.636L135.611 165.311C135.843 165.253 135.982 165.091 135.924 164.951L134.149 160.241C134.149 160.102 133.871 160.044 133.65 160.102L132.49 160.415C132.27 160.485 132.119 160.647 132.177 160.786L133.952 165.497C134.045 165.636 134.219 165.694 134.451 165.636Z" fill="#18955C"/>
<path opacity="0.4" d="M134.451 165.636L135.611 165.311C135.843 165.253 135.982 165.091 135.924 164.951L134.149 160.241C134.149 160.102 133.871 160.044 133.65 160.102L132.49 160.415C132.27 160.485 132.119 160.647 132.177 160.786L133.952 165.497C134.045 165.636 134.219 165.694 134.451 165.636Z" fill="black"/>
<path d="M151.447 160.937L152.607 160.612C152.839 160.554 152.979 160.392 152.921 160.253L151.146 155.543C151.146 155.403 150.867 155.345 150.647 155.403L149.487 155.717C149.266 155.786 149.115 155.949 149.173 156.088L150.948 160.798C150.972 160.937 151.204 160.995 151.447 160.937Z" fill="#18955C"/>
<path opacity="0.4" d="M151.447 160.937L152.607 160.612C152.839 160.554 152.979 160.392 152.921 160.253L151.146 155.543C151.146 155.403 150.867 155.345 150.647 155.403L149.487 155.717C149.266 155.786 149.115 155.949 149.173 156.088L150.948 160.798C150.972 160.937 151.204 160.995 151.447 160.937Z" fill="black"/>
<path d="M131.378 63.3421C131.516 62.4882 131.176 61.7231 130.62 61.6332C130.063 61.5434 129.5 62.1628 129.362 63.0167C129.224 63.8706 129.564 64.6357 130.12 64.7256C130.677 64.8155 131.24 64.196 131.378 63.3421Z" fill="#263238"/>
<path d="M121.724 62.1265C121.608 62.9734 121.051 63.6115 120.494 63.5535C119.937 63.4955 119.589 62.7298 119.705 61.8712C119.821 61.0127 120.39 60.3862 120.947 60.4558C121.503 60.5255 121.852 61.268 121.724 62.1265Z" fill="#263238"/>
<path d="M121.179 60.5835L119.218 59.7481C119.218 59.7481 120.042 61.4188 121.179 60.5835Z" fill="#263238"/>
<path d="M124.067 63.9015C123.022 65.761 121.735 67.4737 120.239 68.9946C120.633 69.3581 121.103 69.6307 121.614 69.793C122.125 69.9554 122.665 70.0036 123.197 69.9343L124.067 63.9015Z" fill="#A02724"/>
<path d="M125.61 73.6353C125.567 73.6132 125.532 73.5774 125.511 73.5333C125.49 73.4892 125.484 73.4393 125.494 73.3916C125.499 73.358 125.51 73.3255 125.527 73.2961C125.544 73.2668 125.566 73.2411 125.593 73.2206C125.62 73.2 125.651 73.1851 125.684 73.1766C125.717 73.1681 125.751 73.1663 125.784 73.1712C126.852 73.3182 127.938 73.2155 128.959 72.8712C129.98 72.527 130.906 71.9506 131.666 71.1873C131.714 71.1398 131.779 71.1132 131.846 71.1132C131.914 71.1132 131.978 71.1398 132.026 71.1873C132.049 71.21 132.068 71.2371 132.08 71.267C132.093 71.2968 132.099 71.3289 132.099 71.3613C132.099 71.3937 132.093 71.4258 132.08 71.4557C132.068 71.4856 132.049 71.5127 132.026 71.5354C131.214 72.3713 130.216 73.0027 129.113 73.3779C128.01 73.753 126.833 73.8611 125.68 73.6933C125.651 73.6831 125.626 73.6625 125.61 73.6353Z" fill="#263238"/>
<path d="M135.425 59.3189C135.351 59.2797 135.291 59.219 135.251 59.1449C134.961 58.5847 134.539 58.1033 134.021 57.7416C133.504 57.38 132.907 57.1489 132.281 57.0682C132.215 57.0653 132.15 57.0491 132.091 57.0203C132.031 56.9916 131.978 56.951 131.935 56.9011C131.891 56.8512 131.858 56.7929 131.838 56.7299C131.818 56.6669 131.811 56.6004 131.817 56.5345C131.829 56.4001 131.892 56.2756 131.994 56.1869C132.096 56.0982 132.228 56.0523 132.363 56.0588C133.153 56.1495 133.909 56.4313 134.566 56.8801C135.223 57.3289 135.761 57.931 136.133 58.6344C136.187 58.7325 136.207 58.8455 136.19 58.9561C136.173 59.0667 136.121 59.1687 136.04 59.2465C135.96 59.3243 135.856 59.3735 135.745 59.3865C135.634 59.3996 135.522 59.3759 135.425 59.3189V59.3189Z" fill="#263238"/>
<path d="M117.803 57.103H117.733C117.638 57.0073 117.585 56.8781 117.585 56.7433C117.585 56.6086 117.638 56.4793 117.733 56.3837C118.251 55.762 118.909 55.2717 119.653 54.9531C120.397 54.6345 121.206 54.4966 122.014 54.5506C122.079 54.559 122.142 54.5806 122.199 54.6141C122.256 54.6476 122.305 54.6923 122.344 54.7454C122.384 54.7986 122.411 54.8591 122.426 54.9233C122.441 54.9876 122.443 55.0542 122.432 55.1191C122.411 55.2537 122.339 55.3751 122.231 55.4574C122.123 55.5398 121.987 55.5766 121.851 55.56C121.213 55.5253 120.576 55.6417 119.991 55.8997C119.407 56.1578 118.891 56.5502 118.487 57.045C118.399 57.1358 118.282 57.1917 118.156 57.2024C118.03 57.2131 117.904 57.1777 117.803 57.103V57.103Z" fill="#263238"/>
<path d="M168.165 93.822C170.219 96.2236 172.539 98.7991 174.848 101.189C177.156 103.579 179.488 105.969 181.994 108.208C186.755 112.683 191.983 116.635 197.587 119.995C198.921 120.765 200.296 121.462 201.705 122.084C202.863 122.6 204.091 122.944 205.348 123.104C208.127 123.39 210.935 123.045 213.562 122.095C216.528 121.066 219.353 119.67 221.973 117.942C223.319 117.048 224.676 116.12 225.987 115.123C227.298 114.125 228.598 113.023 229.735 112.013L233.853 115.494C232.754 116.999 231.561 118.433 230.28 119.786C229.022 121.143 227.689 122.429 226.289 123.638C223.403 126.157 220.192 128.275 216.741 129.938C212.967 131.763 208.807 132.647 204.617 132.513C202.402 132.43 200.214 131.999 198.132 131.237C196.318 130.566 194.544 129.791 192.818 128.917C186.296 125.473 180.231 121.225 174.766 116.271C172.052 113.87 169.406 111.422 166.924 108.823C165.682 107.524 164.453 106.213 163.246 104.867C162.039 103.521 160.926 102.198 159.673 100.69L168.165 93.822Z" fill="#B65B52"/>
<path d="M231.498 117.524L237.577 112.675L229.851 107.396C229.851 107.396 226.278 112.037 227.333 116.364L231.498 117.524Z" fill="#B55B52"/>
<path d="M242.45 107.164L236.754 102.581L229.886 107.396L237.612 112.675L242.45 107.164Z" fill="#B55B52"/>
<path d="M164.441 88.0792C168.977 88.1953 171.727 92.7199 171.727 92.7199L164.035 110.981C164.035 110.981 157.004 106.677 157.399 100.771C157.793 94.6806 159.267 87.9632 164.441 88.0792Z" fill="#263238"/>
<path d="M250.142 353.559C250.029 353.48 249.924 353.391 249.829 353.292C249.714 353.191 249.629 353.062 249.582 352.917C249.535 352.772 249.528 352.617 249.562 352.468C249.875 351.134 253.506 349.742 253.924 349.591C253.97 349.574 254.019 349.571 254.066 349.581C254.113 349.591 254.157 349.615 254.191 349.649C254.215 349.691 254.228 349.739 254.228 349.788C254.228 349.837 254.215 349.885 254.191 349.927C253.611 351.238 252.439 353.477 251.105 353.744C250.772 353.811 250.426 353.744 250.142 353.559V353.559ZM253.518 350.299C252.079 350.89 250.223 351.876 250.038 352.619C250.022 352.685 250.025 352.754 250.048 352.818C250.07 352.882 250.111 352.938 250.165 352.979C250.27 353.103 250.405 353.199 250.557 353.256C250.71 353.313 250.875 353.329 251.035 353.303C251.778 353.106 252.683 352.016 253.541 350.299H253.518Z" fill="#18955C"/>
<path d="M249.434 350.043C249.35 349.991 249.272 349.929 249.202 349.858C249.064 349.696 248.988 349.49 248.988 349.278C248.988 349.065 249.064 348.859 249.202 348.698C249.302 348.529 249.436 348.382 249.596 348.269C249.756 348.155 249.938 348.075 250.13 348.036C251.65 347.7 254.098 349.498 254.203 349.579C254.239 349.605 254.267 349.641 254.286 349.681C254.304 349.722 254.311 349.767 254.307 349.811C254.302 349.856 254.284 349.899 254.255 349.934C254.226 349.969 254.188 349.995 254.145 350.009C253.112 350.507 250.478 350.716 249.434 350.043ZM253.379 349.707C252.46 348.994 251.339 348.588 250.177 348.547C250.054 348.567 249.938 348.615 249.838 348.687C249.737 348.76 249.654 348.855 249.597 348.964C249.434 349.243 249.504 349.382 249.597 349.475C250.084 350.02 252.195 350.067 253.46 349.719L253.379 349.707Z" fill="#18955C"/>
<path d="M151.447 375.486C150.579 375.548 149.712 375.341 148.964 374.894C148.772 374.754 148.614 374.571 148.503 374.359C148.393 374.148 148.332 373.914 148.326 373.676C148.31 373.544 148.331 373.41 148.386 373.289C148.442 373.169 148.529 373.065 148.64 372.991C149.8 372.202 154.104 374.152 154.962 374.569C155.01 374.588 155.052 374.621 155.081 374.663C155.11 374.705 155.125 374.756 155.125 374.807C155.125 374.858 155.11 374.909 155.081 374.951C155.052 374.994 155.01 375.026 154.962 375.045C153.81 375.318 152.631 375.465 151.447 375.486V375.486ZM149.428 373.293C149.254 373.278 149.08 373.319 148.93 373.409C148.892 373.433 148.861 373.468 148.843 373.509C148.824 373.551 148.818 373.596 148.825 373.641C148.831 373.807 148.875 373.97 148.953 374.117C149.032 374.264 149.143 374.391 149.278 374.488C150.02 375.045 151.772 375.126 154.034 374.708C152.596 374.005 151.058 373.527 149.475 373.293H149.428Z" fill="#18955C"/>
<path d="M154.928 375.045H154.823C153.396 374.453 150.507 372.144 150.67 370.949C150.67 370.683 150.89 370.358 151.54 370.277C154.046 369.975 155.125 374.557 155.171 374.755C155.182 374.799 155.18 374.845 155.165 374.888C155.151 374.931 155.125 374.969 155.09 374.998C155.067 375.016 155.041 375.03 155.013 375.038C154.986 375.046 154.956 375.048 154.928 375.045V375.045ZM151.772 370.764H151.598C151.331 370.764 151.192 370.868 151.18 370.996C151.088 371.692 153.071 373.513 154.533 374.314C154.174 373.223 153.269 370.764 151.749 370.764H151.772Z" fill="#18955C"/>
<path d="M130.819 61.7436L128.859 60.8967C128.859 60.8967 129.683 62.6021 130.819 61.7436Z" fill="#263238"/>
<path d="M217.078 386.867H350.589C359.956 386.867 367.55 379.273 367.55 369.905L367.55 50.2232C367.55 40.8556 359.956 33.2617 350.589 33.2617H217.078C207.71 33.2617 200.116 40.8556 200.116 50.2232L200.116 369.905C200.116 379.273 207.71 386.867 217.078 386.867Z" fill="#18955C"/>
<path d="M201.172 140.333H203.446C205.201 140.333 206.625 138.91 206.625 137.154V96.0379C206.625 94.2823 205.201 92.8591 203.446 92.8591H201.172C199.416 92.8591 197.993 94.2823 197.993 96.0379V137.154C197.993 138.91 199.416 140.333 201.172 140.333Z" fill="#18955C"/>
<path d="M367.898 116.039H370.52C372.18 116.039 373.525 114.694 373.525 113.034V95.8639C373.525 94.2044 372.18 92.8591 370.52 92.8591H367.898C366.239 92.8591 364.894 94.2044 364.894 95.8639V113.034C364.894 114.694 366.239 116.039 367.898 116.039Z" fill="#18955C"/>
<path d="M367.898 146.679H370.52C372.18 146.679 373.525 145.334 373.525 143.674V126.504C373.525 124.844 372.18 123.499 370.52 123.499H367.898C366.239 123.499 364.894 124.844 364.894 126.504V143.674C364.894 145.334 366.239 146.679 367.898 146.679Z" fill="#18955C"/>
<path d="M220.605 386.867H354.116C363.483 386.867 371.077 379.273 371.077 369.905L371.077 50.2232C371.077 40.8556 363.483 33.2617 354.116 33.2617H220.605C211.237 33.2617 203.643 40.8556 203.643 50.2232L203.643 369.905C203.643 379.273 211.237 386.867 220.605 386.867Z" fill="#18955C"/>
<path opacity="0.6" d="M220.605 386.867H354.116C363.483 386.867 371.077 379.273 371.077 369.905L371.077 50.2232C371.077 40.8556 363.483 33.2617 354.116 33.2617H220.605C211.237 33.2617 203.643 40.8556 203.643 50.2232L203.643 369.905C203.643 379.273 211.237 386.867 220.605 386.867Z" fill="white"/>
<path opacity="0.3" d="M287.348 374.848C292.622 374.848 296.897 370.573 296.897 365.299C296.897 360.026 292.622 355.751 287.348 355.751C282.075 355.751 277.8 360.026 277.8 365.299C277.8 370.573 282.075 374.848 287.348 374.848Z" fill="#18955C"/>
<path d="M207.68 348.721H367.04L367.04 60.2702H207.68L207.68 348.721Z" fill="white"/>
<path opacity="0.3" d="M309.786 48.2858C309.788 47.6629 309.606 47.0535 309.261 46.5347C308.916 46.0159 308.425 45.6111 307.85 45.3717C307.276 45.1323 306.642 45.069 306.031 45.19C305.42 45.3109 304.859 45.6106 304.419 46.051C303.978 46.4914 303.679 47.0527 303.558 47.6636C303.437 48.2746 303.5 48.9077 303.739 49.4827C303.979 50.0577 304.384 50.5486 304.902 50.8932C305.421 51.2377 306.031 51.4205 306.654 51.4182C307.484 51.4182 308.281 51.0882 308.868 50.5007C309.456 49.9133 309.786 49.1165 309.786 48.2858V48.2858Z" fill="#18955C"/>
<path opacity="0.3" d="M295.818 45.1417H269.737C268.007 45.1417 266.605 46.5441 266.605 48.2741V48.2857C266.605 50.0157 268.007 51.4182 269.737 51.4182H295.818C297.548 51.4182 298.95 50.0157 298.95 48.2857V48.2741C298.95 46.5441 297.548 45.1417 295.818 45.1417Z" fill="#18955C"/>
<path d="M287.328 159.981C277.661 159.981 269.803 167.839 269.79 177.505C269.79 180.816 270.72 184.047 272.476 186.826L272.888 187.491L271.119 193.953L277.754 192.211L278.393 192.597C281.078 194.193 284.163 195.043 287.314 195.043H287.328C296.981 195.043 305.052 187.185 305.052 177.519C305.052 172.838 303.031 168.437 299.72 165.126C296.396 161.802 292.008 159.981 287.328 159.981ZM297.633 185.031C297.194 186.268 295.093 187.385 294.082 187.531C292.407 187.784 291.104 187.651 287.767 186.215C282.488 183.928 279.031 178.609 278.765 178.263C278.499 177.918 276.611 175.405 276.611 172.812C276.611 170.219 277.967 168.943 278.459 168.411C278.938 167.879 279.509 167.746 279.868 167.746C280.214 167.746 280.573 167.746 280.879 167.759C281.198 167.772 281.637 167.64 282.062 168.663C282.501 169.714 283.552 172.307 283.685 172.572C283.817 172.838 283.911 173.144 283.724 173.49C282.714 175.511 281.637 175.431 282.182 176.362C284.216 179.859 286.251 181.069 289.349 182.625C289.881 182.891 290.186 182.851 290.492 182.492C290.798 182.146 291.809 180.949 292.154 180.431C292.5 179.899 292.859 179.992 293.338 180.165C293.816 180.338 296.409 181.614 296.941 181.88C297.473 182.146 297.819 182.279 297.952 182.492C298.071 182.744 298.071 183.808 297.633 185.031V185.031ZM310.73 147.908H263.926C260.402 147.908 257.544 150.766 257.544 154.29V201.093C257.544 204.617 260.402 207.476 263.926 207.476H310.73C314.253 207.476 317.112 204.617 317.112 201.093V154.29C317.112 150.766 314.253 147.908 310.73 147.908ZM287.314 198.594C283.778 198.594 280.307 197.703 277.236 196.027L266.053 198.966L269.045 188.036C267.197 184.845 266.226 181.215 266.226 177.492C266.24 165.871 275.693 156.417 287.314 156.417C292.952 156.417 298.244 158.611 302.233 162.6C306.209 166.589 308.602 171.881 308.602 177.519C308.602 189.14 298.936 198.594 287.314 198.594Z" fill="#6AE167"/>
<path d="M243.08 254.224C242.872 254.448 242.544 254.68 242.096 254.92C241.648 255.144 241.128 255.352 240.536 255.544C239.96 255.736 239.368 255.888 238.76 256C238.152 256.128 237.576 256.192 237.032 256.192C235.128 256.192 233.472 255.824 232.064 255.088C230.656 254.352 229.568 253.344 228.8 252.064C228.048 250.784 227.672 249.32 227.672 247.672C227.672 246.056 227.912 244.656 228.392 243.472C228.888 242.272 229.552 241.28 230.384 240.496C231.232 239.696 232.2 239.104 233.288 238.72C234.392 238.336 235.544 238.144 236.744 238.144C237.88 238.144 238.92 238.272 239.864 238.528C240.808 238.768 241.608 239.072 242.264 239.44L241.136 242.68C240.848 242.52 240.464 242.36 239.984 242.2C239.504 242.04 239.016 241.912 238.52 241.816C238.024 241.704 237.584 241.648 237.2 241.648C235.296 241.648 233.832 242.128 232.808 243.088C231.784 244.032 231.272 245.456 231.272 247.36C231.272 248.464 231.52 249.416 232.016 250.216C232.512 251.016 233.2 251.632 234.08 252.064C234.976 252.496 235.992 252.712 237.128 252.712C237.624 252.712 238.08 252.68 238.496 252.616C238.912 252.536 239.264 252.416 239.552 252.256V250.12H236.504V246.76H243.08V254.224ZM251.185 238.336C253.409 238.336 255.113 238.88 256.297 239.968C257.497 241.04 258.097 242.48 258.097 244.288C258.097 245.296 257.881 246.288 257.449 247.264C257.033 248.24 256.321 249.016 255.313 249.592L259.417 256H255.361L251.641 250.384H249.313V256H245.833V238.336H251.185ZM251.785 247.024C252.489 247.024 253.033 246.88 253.417 246.592C253.817 246.288 254.097 245.936 254.257 245.536C254.417 245.12 254.497 244.744 254.497 244.408C254.497 244.216 254.465 243.976 254.401 243.688C254.353 243.384 254.241 243.08 254.065 242.776C253.889 242.472 253.617 242.216 253.249 242.008C252.897 241.8 252.417 241.696 251.809 241.696H249.313V247.024H251.785ZM264.206 249.472C264.206 250.032 264.374 250.568 264.71 251.08C265.046 251.592 265.486 252.008 266.03 252.328C266.59 252.648 267.198 252.808 267.854 252.808C268.574 252.808 269.214 252.648 269.774 252.328C270.334 252.008 270.774 251.592 271.094 251.08C271.43 250.568 271.598 250.032 271.598 249.472V238.336H275.03V249.544C275.03 250.84 274.71 251.992 274.07 253C273.43 253.992 272.566 254.776 271.478 255.352C270.39 255.912 269.182 256.192 267.854 256.192C266.542 256.192 265.342 255.912 264.254 255.352C263.182 254.776 262.326 253.992 261.686 253C261.046 251.992 260.726 250.84 260.726 249.544V238.336H264.206V249.472ZM283.379 238.336C285.571 238.336 287.251 238.88 288.419 239.968C289.587 241.04 290.171 242.48 290.171 244.288C290.171 245.008 290.059 245.736 289.835 246.472C289.627 247.192 289.283 247.848 288.803 248.44C288.339 249.032 287.707 249.512 286.907 249.88C286.123 250.232 285.155 250.408 284.003 250.408H281.507V256H278.027V238.336H283.379ZM283.979 247.024C284.683 247.024 285.227 246.872 285.611 246.568C286.011 246.248 286.291 245.88 286.451 245.464C286.611 245.048 286.691 244.688 286.691 244.384C286.691 244.208 286.659 243.976 286.595 243.688C286.547 243.384 286.435 243.08 286.259 242.776C286.083 242.472 285.811 242.216 285.443 242.008C285.091 241.8 284.611 241.696 284.003 241.696H281.507V247.024H283.979ZM291.005 247.192C291.005 245.976 291.237 244.824 291.701 243.736C292.165 242.648 292.805 241.688 293.621 240.856C294.453 240.008 295.413 239.344 296.501 238.864C297.589 238.384 298.757 238.144 300.005 238.144C301.237 238.144 302.397 238.384 303.485 238.864C304.573 239.344 305.533 240.008 306.365 240.856C307.213 241.688 307.869 242.648 308.333 243.736C308.813 244.824 309.053 245.976 309.053 247.192C309.053 248.44 308.813 249.608 308.333 250.696C307.869 251.784 307.213 252.744 306.365 253.576C305.533 254.392 304.573 255.032 303.485 255.496C302.397 255.96 301.237 256.192 300.005 256.192C298.757 256.192 297.589 255.96 296.501 255.496C295.413 255.032 294.453 254.392 293.621 253.576C292.805 252.744 292.165 251.784 291.701 250.696C291.237 249.608 291.005 248.44 291.005 247.192ZM294.605 247.192C294.605 248.232 294.845 249.184 295.325 250.048C295.821 250.896 296.485 251.576 297.317 252.088C298.149 252.584 299.085 252.832 300.125 252.832C301.133 252.832 302.037 252.584 302.837 252.088C303.653 251.576 304.293 250.896 304.757 250.048C305.221 249.184 305.453 248.232 305.453 247.192C305.453 246.12 305.213 245.16 304.733 244.312C304.253 243.448 303.605 242.768 302.789 242.272C301.973 241.76 301.053 241.504 300.029 241.504C299.005 241.504 298.085 241.76 297.269 242.272C296.453 242.768 295.805 243.448 295.325 244.312C294.845 245.16 294.605 246.12 294.605 247.192ZM315.903 238.336L319.935 248.296L323.727 238.336H327.855L319.791 256.816L311.727 238.336H315.903ZM329.711 238.336H333.191V256H329.711V238.336ZM341.902 238.336C344.094 238.336 345.774 238.88 346.942 239.968C348.11 241.04 348.694 242.48 348.694 244.288C348.694 245.008 348.582 245.736 348.358 246.472C348.15 247.192 347.806 247.848 347.326 248.44C346.862 249.032 346.23 249.512 345.43 249.88C344.646 250.232 343.678 250.408 342.526 250.408H340.03V256H336.55V238.336H341.902ZM342.502 247.024C343.206 247.024 343.75 246.872 344.134 246.568C344.534 246.248 344.814 245.88 344.974 245.464C345.134 245.048 345.214 244.688 345.214 244.384C345.214 244.208 345.182 243.976 345.118 243.688C345.07 243.384 344.958 243.08 344.782 242.776C344.606 242.472 344.334 242.216 343.966 242.008C343.614 241.8 343.134 241.696 342.526 241.696H340.03V247.024H342.502ZM225.702 263.456H229.782L233.262 273.68L235.95 266.936L234.558 263.456H238.014L241.974 273.272L244.974 263.456H248.718L241.902 281.768L237.702 271.304L232.806 281.816L225.702 263.456ZM265.433 263.336V281H261.953V273.824H254.057V281H250.577V263.336H254.057V270.464H261.953V263.336H265.433ZM266.791 281L274.759 262.64H274.951L282.919 281H278.887L277.519 277.544H271.663L270.223 281H266.791ZM272.887 274.616H276.367L274.663 270.32L272.887 274.616ZM281.664 263.336H293.568V266.696H289.272V281H285.792V266.696H281.664V263.336ZM305.159 267.608C304.487 267.24 303.799 266.936 303.095 266.696C302.407 266.456 301.759 266.336 301.151 266.336C300.399 266.336 299.807 266.488 299.375 266.792C298.943 267.096 298.727 267.552 298.727 268.16C298.727 268.576 298.887 268.952 299.207 269.288C299.543 269.608 299.967 269.896 300.479 270.152C301.007 270.408 301.551 270.64 302.111 270.848C302.799 271.104 303.463 271.432 304.103 271.832C304.743 272.216 305.271 272.752 305.687 273.44C306.103 274.112 306.311 275.008 306.311 276.128C306.311 277.024 306.079 277.856 305.615 278.624C305.151 279.392 304.471 280.016 303.575 280.496C302.679 280.96 301.575 281.192 300.263 281.192C299.255 281.192 298.223 281.04 297.167 280.736C296.127 280.432 295.143 279.952 294.215 279.296L295.751 276.584C296.359 277.032 297.055 277.4 297.839 277.688C298.623 277.976 299.327 278.12 299.951 278.12C300.367 278.12 300.783 278.064 301.199 277.952C301.631 277.824 301.983 277.616 302.255 277.328C302.543 277.04 302.687 276.64 302.687 276.128C302.687 275.6 302.431 275.144 301.919 274.76C301.423 274.36 300.823 274.024 300.119 273.752C299.575 273.544 299.015 273.304 298.439 273.032C297.863 272.76 297.319 272.432 296.807 272.048C296.311 271.648 295.903 271.16 295.583 270.584C295.279 269.992 295.127 269.272 295.127 268.424C295.127 267.4 295.351 266.512 295.799 265.76C296.263 265.008 296.911 264.416 297.743 263.984C298.575 263.536 299.535 263.288 300.623 263.24C302.047 263.24 303.199 263.408 304.079 263.744C304.975 264.08 305.775 264.48 306.479 264.944L305.159 267.608ZM306.527 281L314.495 262.64H314.687L322.655 281H318.623L317.255 277.544H311.399L309.959 281H306.527ZM312.623 274.616H316.103L314.399 270.32L312.623 274.616ZM329.382 263.336C331.574 263.336 333.254 263.88 334.422 264.968C335.59 266.04 336.174 267.48 336.174 269.288C336.174 270.008 336.062 270.736 335.838 271.472C335.63 272.192 335.286 272.848 334.806 273.44C334.342 274.032 333.71 274.512 332.91 274.88C332.126 275.232 331.158 275.408 330.006 275.408H327.51V281H324.03V263.336H329.382ZM329.982 272.024C330.686 272.024 331.23 271.872 331.614 271.568C332.014 271.248 332.294 270.88 332.454 270.464C332.614 270.048 332.694 269.688 332.694 269.384C332.694 269.208 332.662 268.976 332.598 268.688C332.55 268.384 332.438 268.08 332.262 267.776C332.086 267.472 331.814 267.216 331.446 267.008C331.094 266.8 330.614 266.696 330.006 266.696H327.51V272.024H329.982ZM343.44 263.336C345.632 263.336 347.312 263.88 348.48 264.968C349.648 266.04 350.232 267.48 350.232 269.288C350.232 270.008 350.12 270.736 349.896 271.472C349.688 272.192 349.344 272.848 348.864 273.44C348.4 274.032 347.768 274.512 346.968 274.88C346.184 275.232 345.216 275.408 344.064 275.408H341.568V281H338.088V263.336H343.44ZM344.04 272.024C344.744 272.024 345.288 271.872 345.672 271.568C346.072 271.248 346.352 270.88 346.512 270.464C346.672 270.048 346.752 269.688 346.752 269.384C346.752 269.208 346.72 268.976 346.656 268.688C346.608 268.384 346.496 268.08 346.32 267.776C346.144 267.472 345.872 267.216 345.504 267.008C345.152 266.8 344.672 266.696 344.064 266.696H341.568V272.024H344.04Z" fill="#5BD759"/>
</svg>
