<svg width="380" height="446" viewBox="0 0 380 446" fill="none" xmlns="http://www.w3.org/2000/svg">
<path d="M351.52 74.9999L349.37 71.4599C331.29 41.6599 298.58 23.6899 264.1 25.8699C259.665 26.148 255.256 26.753 250.91 27.6799C219.56 34.3999 192.28 58.1099 181 88.4699C174.35 106.32 172.5 126.88 159.88 141.06C143.46 159.5 115.57 160.06 91.06 159.32C66.55 158.58 38.65 159.2 22.31 177.72C12 189.32 8.78999 205.81 9.60999 221.34C11.8 262.46 40.45 299.23 76.89 317.51C113.33 335.79 156.24 337.42 196.12 329.38C251.99 318.12 305.12 287.19 337.05 239.38C368.98 191.57 377.07 126.57 351.52 74.9999Z" fill="#F5F5F5"/>
<path d="M360.241 346.887C371.125 336.003 371.125 318.357 360.241 307.473C349.357 296.589 331.711 296.589 320.827 307.473C309.943 318.357 309.943 336.003 320.827 346.887C331.711 357.771 349.357 357.771 360.241 346.887Z" fill="#F5F5F5"/>
<path d="M52.3257 73.491C66.5037 67.4991 73.1398 51.1481 67.1478 36.9701C61.1559 22.7921 44.8049 16.156 30.6269 22.1479C16.4489 28.1399 9.81281 44.4909 15.8047 58.6689C21.7967 72.8469 38.1477 79.483 52.3257 73.491Z" fill="#F5F5F5"/>
<path d="M76.5718 139.764C78.4371 119.77 63.7408 102.05 43.7465 100.184C23.7523 98.3188 6.03156 113.015 4.16619 133.009C2.30082 153.004 16.9972 170.724 36.9914 172.59C56.9857 174.455 74.7064 159.759 76.5718 139.764Z" fill="white"/>
<path d="M80.64 149.23C80.64 149.23 80.39 149.54 80.07 150.16C79.6401 151.051 79.4902 152.052 79.64 153.03C79.7348 153.695 79.9774 154.331 80.35 154.89C80.7864 155.527 81.3976 156.023 82.11 156.32C82.9138 156.702 83.8153 156.829 84.6934 156.684C85.5715 156.539 86.3841 156.128 87.0221 155.508C87.66 154.887 88.0928 154.086 88.2623 153.213C88.4317 152.339 88.3297 151.434 87.97 150.62C87.6916 149.903 87.2125 149.282 86.59 148.83C86.0374 148.441 85.4057 148.178 84.74 148.06C83.7699 147.885 82.7697 148.007 81.87 148.41C81.23 148.71 80.95 148.99 80.87 148.96C80.929 148.883 80.9998 148.815 81.08 148.76C81.1599 148.675 81.2507 148.601 81.35 148.54C81.4777 148.446 81.6151 148.365 81.76 148.3C82.6802 147.815 83.7344 147.647 84.76 147.82C85.4764 147.928 86.1596 148.195 86.76 148.6C87.4404 149.074 87.9658 149.739 88.27 150.51C88.6065 151.354 88.7068 152.274 88.56 153.17C88.4342 154.151 87.9803 155.06 87.2722 155.75C86.5642 156.44 85.6435 156.87 84.66 156.97C83.7571 157.098 82.8363 156.974 82 156.61C81.2381 156.283 80.5882 155.741 80.13 155.05C79.7468 154.444 79.5011 153.761 79.41 153.05C79.26 152.017 79.4533 150.963 79.96 150.05C80.0386 149.912 80.1254 149.778 80.22 149.65C80.3 149.54 80.38 149.45 80.44 149.38C80.5031 149.326 80.5699 149.275 80.64 149.23Z" fill="#263238"/>
<path d="M69.91 114.64C69.91 114.64 69.77 114.49 69.52 114.19L68.4 112.85L67.59 111.85C67.27 111.5 66.89 111.15 66.49 110.76C66.09 110.37 65.67 109.94 65.21 109.49C64.9823 109.246 64.7348 109.022 64.47 108.82L63.64 108.16C60.9322 105.905 57.8976 104.074 54.64 102.73C50.3187 100.914 45.6871 99.9492 41 99.8899H39C38.34 99.8899 37.67 100.01 37 100.06L36 100.15C35.6638 100.173 35.3297 100.22 35 100.29L32.94 100.68C32.59 100.75 32.24 100.8 31.94 100.88L30.94 101.18L28.84 101.8C28.14 102.03 27.47 102.34 26.77 102.61L25.77 103.03L25.25 103.25L24.75 103.51C23.3668 104.19 22.0305 104.962 20.75 105.82C20.11 106.26 19.42 106.67 18.75 107.15L16.88 108.68C16.57 108.95 16.24 109.19 15.94 109.47L15.07 110.34C14.5 110.93 13.89 111.5 13.33 112.12C12.2211 113.385 11.1956 114.721 10.26 116.12L9.54997 117.19C9.42997 117.37 9.30997 117.55 9.19997 117.73L8.88997 118.31L7.66997 120.62C7.29997 121.41 6.98997 122.24 6.66997 123.06C6.50997 123.47 6.30997 123.87 6.17997 124.3L5.78997 125.58C5.2581 127.31 4.84382 129.074 4.54997 130.86C4.44997 131.77 4.35997 132.69 4.25997 133.61L4.18997 134.3C4.18997 134.53 4.18997 134.76 4.18997 134.99V137.79L4.30997 139.19L4.43997 140.59L4.49997 141.3C4.49997 141.53 4.58997 141.76 4.62997 142C4.79997 142.93 4.97997 143.86 5.15997 144.8C5.33997 145.74 5.68997 146.64 5.95997 147.56C8.30074 155.042 13.0197 161.555 19.4 166.11L21.8 167.7L24.32 169L24.95 169.33L25.6 169.6L26.91 170.14L28.21 170.67L29.55 171.08L30.89 171.48L31.55 171.68L32.23 171.82L34.93 172.36C36.7264 172.605 38.5369 172.732 40.35 172.74H41.69C42.14 172.74 42.58 172.67 43.02 172.65C43.9 172.56 44.79 172.51 45.65 172.39L48.22 171.91L48.86 171.79L49.49 171.61L50.72 171.25C52.3439 170.781 53.9342 170.203 55.48 169.52C56.24 169.17 56.96 168.76 57.7 168.38L58.79 167.81C59.14 167.62 59.47 167.37 59.79 167.15L61.79 165.82C62.44 165.36 63.03 164.82 63.65 164.34C64.8538 163.361 65.9897 162.302 67.05 161.17L67.45 160.77C67.58 160.63 67.69 160.48 67.82 160.33L68.53 159.46C68.99 158.87 69.53 158.32 69.92 157.72L71.13 155.9C71.33 155.6 71.53 155.3 71.72 155L72.23 154.07L73.23 152.21C73.4008 151.908 73.5479 151.594 73.67 151.27L74.06 150.33C74.31 149.7 74.58 149.08 74.81 148.46C75.04 147.84 75.2 147.2 75.39 146.58C76.7186 142.091 77.1668 137.388 76.71 132.73C76.71 132.22 76.63 131.73 76.58 131.22L76.31 129.78C76.22 129.31 76.14 128.85 76.05 128.39C76.05 128.17 75.98 127.94 75.92 127.72C75.86 127.5 75.8 127.29 75.73 127.08C75.49 126.23 75.25 125.42 75.03 124.65C74.81 123.88 74.46 123.18 74.21 122.5L73.81 121.5C73.6976 121.186 73.5605 120.882 73.4 120.59C73.11 120.02 72.83 119.48 72.57 118.99C72.31 118.5 72.09 117.99 71.85 117.62L71.15 116.55L70.2 115.08L69.89 114.58L70.23 115.06L71.23 116.51L71.94 117.58C72.19 117.98 72.41 118.45 72.68 118.94C72.95 119.43 73.23 119.94 73.53 120.54C73.6938 120.832 73.8343 121.136 73.95 121.45L74.35 122.45C74.61 123.13 74.94 123.83 75.19 124.6L75.91 127.04C75.97 127.25 76.04 127.47 76.1 127.69C76.16 127.91 76.19 128.13 76.24 128.36C76.32 128.81 76.41 129.28 76.5 129.75C76.59 130.22 76.68 130.75 76.78 131.2C76.88 131.65 76.87 132.2 76.92 132.72C77.3909 137.402 76.9563 142.132 75.64 146.65C75.4533 147.27 75.2633 147.9 75.07 148.54C74.84 149.17 74.56 149.79 74.31 150.42L73.92 151.42C73.797 151.742 73.6534 152.056 73.49 152.36L72.49 154.23C72.32 154.55 72.16 154.87 71.98 155.23L71.38 156.14L70.17 157.97C69.74 158.58 69.24 159.13 68.77 159.73L68.06 160.61C67.93 160.75 67.82 160.91 67.69 161.05L67.28 161.46C66.2165 162.599 65.0773 163.665 63.87 164.65C63.25 165.15 62.65 165.65 61.99 166.15L59.99 167.5C59.65 167.72 59.32 167.96 58.99 168.16L57.89 168.74C57.15 169.12 56.42 169.53 55.66 169.89C54.1004 170.579 52.4969 171.163 50.86 171.64L49.61 172.01L48.99 172.19L48.34 172.31L45.75 172.8C44.87 172.92 43.98 172.97 43.09 173.06C42.65 173.06 42.2 173.16 41.75 173.15H40.4C38.5737 173.15 36.7495 173.027 34.94 172.78L32.21 172.23L31.52 172.09L30.85 171.89L29.5 171.48L28.15 171.08L26.83 170.54L25.52 170L24.85 169.73L24.22 169.39L21.62 168L19.2 166.39C12.6968 161.828 7.86442 155.264 5.43997 147.7C5.16664 146.76 4.89663 145.83 4.62997 144.91C4.44997 143.91 4.26997 143.02 4.09997 142.08C4.09997 141.84 4.00997 141.61 3.96997 141.37L3.90997 140.66L3.77997 139.24L3.65997 137.83V135C3.65997 134.76 3.65997 134.53 3.65997 134.3L3.72997 133.6C3.82997 132.67 3.92997 131.75 4.01997 130.83C4.32527 129.031 4.74614 127.254 5.27997 125.51L5.67997 124.21C5.79997 123.78 6.00997 123.38 6.16997 122.96C6.51997 122.14 6.82997 121.3 7.16997 120.5L8.40997 118.17L8.71997 117.59C8.82997 117.41 8.95997 117.23 9.06997 117.05L9.78997 115.96C10.775 114.542 11.8471 113.186 13 111.9C13.57 111.28 14.18 110.71 14.76 110.11L15.64 109.24C15.94 108.95 16.27 108.71 16.58 108.45L18.47 106.91C19.11 106.42 19.8 106.01 20.47 105.56C21.7693 104.699 23.1257 103.927 24.53 103.25L25 103C25.17 102.92 25.36 102.86 25.53 102.79L26.59 102.36C27.29 102.09 27.97 101.78 28.68 101.55L30.79 100.94L31.79 100.63L32.85 100.43L35 99.9999C35.3305 99.9374 35.6644 99.894 36 99.8699L37 99.7799C37.69 99.7299 38.36 99.6499 39 99.6199H41C45.7046 99.7015 50.3494 100.69 54.68 102.53C57.9438 103.896 60.9791 105.754 63.68 108.04L64.5 108.71C64.7648 108.912 65.0123 109.136 65.24 109.38L66.52 110.67C66.91 111.07 67.29 111.42 67.6 111.78C67.91 112.14 68.17 112.48 68.41 112.78L69.5 114.14L69.91 114.64Z" fill="#263238"/>
<path d="M30.5 126.23H36.26C36.2558 125.576 36.3829 124.928 36.6337 124.324C36.8845 123.72 37.2539 123.172 37.7201 122.713C38.1863 122.255 38.7398 121.894 39.3478 121.653C39.9559 121.412 40.6061 121.295 41.26 121.31C42.2309 121.276 43.188 121.548 43.9969 122.086C44.8058 122.624 45.4258 123.402 45.77 124.31C46.0752 125.066 46.1972 125.883 46.1259 126.694C46.0547 127.506 45.7922 128.289 45.36 128.98C44.36 130.59 42.25 132.05 38.36 131.37V144.37H44.05V136.76C46.3901 136.078 48.441 134.646 49.8867 132.683C51.3323 130.721 52.0925 128.337 52.05 125.9C52.05 117.48 44.5 115.52 41.26 115.52C38.81 115.47 30.39 116.07 30.5 126.23Z" fill="#F37E11"/>
<path d="M44.15 146.99H38.37V152.39H44.15V146.99Z" fill="#F37E11"/>
<path d="M247.944 58.6423C249.856 34.7505 232.037 13.8329 208.145 11.9215C184.253 10.0102 163.336 27.8289 161.424 51.7207C159.513 75.6126 177.332 96.5302 201.224 98.4415C225.115 100.353 246.033 82.5342 247.944 58.6423Z" fill="#F37E11"/>
<path d="M233.073 83.5155C248.362 68.2265 248.362 43.4381 233.073 28.149C217.784 12.86 192.995 12.86 177.706 28.149C162.417 43.4381 162.417 68.2265 177.706 83.5155C192.995 98.8045 217.784 98.8045 233.073 83.5155Z" fill="#FAFAFA"/>
<path d="M165.84 53.4899C165.84 53.4899 165.84 53.7099 165.84 54.1299V55.9999C165.84 56.4099 165.84 56.8799 165.84 57.3799C165.84 57.8799 165.94 58.4399 165.98 59.0399C166.02 59.6399 166.1 60.2799 166.16 60.9699C166.22 61.6599 166.41 62.3799 166.53 63.1499C167.206 66.8879 168.443 70.5021 170.2 73.8699C172.487 78.3476 175.617 82.3409 179.42 85.6299L181 86.9999C181.57 87.4299 182.17 87.8299 182.77 88.2499C183.359 88.6908 183.969 89.1013 184.6 89.4799L186.6 90.5899L187.6 91.1499L188.66 91.6099L190.81 92.6099C191.54 92.9099 192.31 93.1199 193.07 93.3799C193.832 93.6565 194.61 93.887 195.4 94.0699C197.015 94.4783 198.655 94.7789 200.31 94.9699C201.15 95.0499 202 95.1899 202.86 95.2299H205.45C205.89 95.2299 206.33 95.2299 206.76 95.2299L208.08 95.1199C208.96 95.0299 209.85 94.9799 210.74 94.8599C212.534 94.5801 214.308 94.1826 216.05 93.6699L217.38 93.2799C217.6 93.2199 217.83 93.1599 218.05 93.0799L218.69 92.8199L221.3 91.8199C222.15 91.4199 222.98 90.9599 223.83 90.5199C224.25 90.2899 224.69 90.0999 225.09 89.8399L226.29 89.0499C227.93 88.0008 229.497 86.8414 230.98 85.5799C231.68 84.8899 232.39 84.2099 233.11 83.5199L233.64 82.9999L234.13 82.4399L235.13 81.2999L236.13 80.1499L237 78.9199L237.87 77.6799L238.31 77.0499C238.44 76.8399 238.56 76.6099 238.69 76.3899L240.2 73.7199L241.45 70.8999C242.997 66.9972 243.951 62.885 244.28 58.6999C244.487 54.4826 244.056 50.2582 243 46.1699L242.13 43.1699C241.75 42.2199 241.37 41.2699 240.98 40.3299L240.7 39.6199L240.34 38.9399L239.64 37.5999L239 36.2999L238.13 34.9999L237.31 33.7399L236.9 33.1199L236.44 32.5299C235.82 31.7599 235.21 30.9799 234.6 30.2099C233.291 28.7689 231.892 27.4128 230.41 26.1499L229.32 25.2199C228.95 24.8999 228.54 24.6599 228.16 24.3699C227.37 23.8399 226.61 23.2599 225.82 22.7599L223.37 21.3799L222.77 21.0299L222.13 20.7499L220.87 20.1799C219.204 19.4493 217.494 18.8247 215.75 18.3099C214.89 18.0699 214.01 17.9099 213.15 17.7099L211.86 17.4299C211.43 17.3399 210.99 17.3099 210.56 17.2599L208 16.9999C207.14 16.9299 206.29 16.9999 205.44 16.9299C203.77 16.901 202.099 16.9846 200.44 17.1799C199.633 17.2602 198.832 17.387 198.04 17.5599C197.25 17.7199 196.45 17.8299 195.69 18.0299L193.44 18.6899L192.32 19.0099L191.26 19.4299L189.16 20.2799C188.47 20.5399 187.84 20.9399 187.16 21.2799C186.48 21.6199 185.87 21.9399 185.25 22.2799L183.47 23.4299C179.272 26.1992 175.646 29.7504 172.79 33.8899C170.621 36.9981 168.935 40.4169 167.79 44.0299C167.533 44.7202 167.316 45.4247 167.14 46.1399C166.98 46.8199 166.84 47.4499 166.71 48.0399C166.58 48.6299 166.44 49.1599 166.35 49.6599C166.26 50.1599 166.23 50.6599 166.18 51.0299C166.08 51.8399 166 52.4599 165.95 52.8899C165.9 53.3199 165.85 53.5199 165.85 53.5199C165.85 53.5199 165.85 53.2999 165.85 52.8799C165.85 52.4599 165.96 51.8799 166.05 51.0199C166.09 50.6133 166.14 50.1533 166.2 49.6399C166.27 49.1399 166.41 48.6399 166.53 48.0099C166.65 47.3799 166.79 46.7799 166.94 46.0999C167.117 45.3828 167.331 44.6752 167.58 43.9799C168.709 40.3324 170.395 36.8815 172.58 33.7499C175.434 29.5649 179.07 25.9721 183.29 23.1699L185.11 21.9999C185.73 21.6399 186.39 21.3199 187.03 20.9999C187.67 20.6799 188.33 20.2699 189.03 19.9999L191.14 19.1499L192.21 18.7199L193.33 18.3899L195.61 17.7199C196.38 17.5199 197.18 17.4099 197.97 17.2399C198.771 17.059 199.583 16.9287 200.4 16.8499C202.059 16.6478 203.729 16.5609 205.4 16.5899C206.26 16.5899 207.12 16.5899 207.99 16.6499L210.59 16.9599C211.03 16.9599 211.47 17.0399 211.9 17.1199L213.21 17.4099C214.08 17.6099 214.97 17.7699 215.84 18.0099C217.597 18.5153 219.32 19.1299 221 19.8499L222.28 20.4199C222.49 20.5199 222.71 20.5999 222.92 20.7099L223.53 21.0499L226.01 22.4499C226.81 22.9599 227.58 23.5299 228.37 24.0799C228.774 24.3429 229.165 24.6266 229.54 24.9299L230.65 25.9299C232.153 27.2006 233.57 28.5704 234.89 30.0299C235.51 30.8033 236.13 31.5833 236.75 32.3699L237.22 32.9599L237.64 33.5899L238.46 34.8599L239.29 36.1299L240 37.4799L240.71 38.8499L241.07 39.5299L241.36 40.2399L242.52 43.1199C242.81 44.1199 243.11 45.1199 243.4 46.1199C244.439 50.2378 244.851 54.4891 244.62 58.7299C244.299 62.9389 243.345 67.0754 241.79 70.9999L240.53 73.8599L239 76.5599L238.62 77.2299L238.18 77.8599L237.29 79.1099L236.41 80.3599L235.41 81.5099L234.41 82.6599L233.91 83.2399L233.37 83.7599L231.22 85.8399C229.718 87.1116 228.135 88.2841 226.48 89.3499L225.26 90.1399C224.86 90.3999 224.41 90.5999 223.99 90.8299C223.13 91.2599 222.29 91.7399 221.43 92.1299L218.79 93.1899L218.14 93.4599L217.47 93.6599L216.13 94.0499C214.368 94.5653 212.574 94.9628 210.76 95.2399C209.86 95.3599 208.96 95.4099 208.07 95.4899L206.74 95.6099C206.3 95.6099 205.85 95.6099 205.41 95.6099H202.79C201.93 95.6099 201.08 95.4299 200.23 95.3399C198.545 95.1449 196.874 94.8376 195.23 94.4199C194.434 94.2322 193.649 93.9985 192.88 93.7199C192.12 93.4499 191.34 93.2399 190.6 92.9399L188.43 91.9399L187.37 91.4699L186.37 90.8999L184.37 89.7799C183.71 89.4199 183.13 88.9399 182.52 88.5399C181.91 88.1399 181.32 87.6999 180.75 87.2699L179.13 85.8799C175.35 82.5445 172.25 78.5106 170 73.9999C168.252 70.6048 167.031 66.9629 166.38 63.1999C166.215 62.4738 166.088 61.7395 166 60.9999C165.95 60.3099 165.89 59.6599 165.84 59.0599C165.79 58.4599 165.74 57.8999 165.73 57.3999C165.72 56.8999 165.73 56.3999 165.73 56.0099C165.73 55.1999 165.73 54.5699 165.78 54.1399C165.83 53.7099 165.84 53.4899 165.84 53.4899Z" fill="#263238"/>
<path d="M223.22 56.91C222.76 56.9778 222.295 57.0078 221.83 57L218 57.08C214.75 57.08 210.23 57.16 205.12 57.16H204.86V54.36C204.86 48.65 204.86 43.49 204.94 39.75C204.94 37.95 205 36.46 205.02 35.32C205.005 34.7781 205.039 34.2359 205.12 33.7C205.195 34.2366 205.228 34.7782 205.22 35.32C205.22 36.46 205.22 37.95 205.3 39.75C205.3 43.49 205.37 48.65 205.37 54.36V56.91L205.12 56.66C210.23 56.66 214.75 56.6599 218 56.7399L221.83 56.82C222.295 56.8121 222.76 56.8422 223.22 56.91Z" fill="#263238"/>
<path d="M205.24 22.7898C205.489 23.8709 205.574 24.9835 205.49 26.0898C205.573 27.1994 205.489 28.3153 205.24 29.3998C204.984 28.3163 204.897 27.1999 204.98 26.0898C204.897 24.983 204.985 23.87 205.24 22.7898V22.7898Z" fill="#263238"/>
<path d="M223.18 28.0999C222.605 29.0332 221.89 29.8729 221.06 30.5899C220.343 31.4195 219.503 32.1344 218.57 32.7099C219.147 31.7749 219.866 30.9349 220.7 30.2199C221.412 29.3892 222.249 28.674 223.18 28.0999V28.0999Z" fill="#263238"/>
<path d="M233.67 39.5598C232.857 40.2696 231.96 40.8774 231 41.3698C230.102 42.0265 229.128 42.5737 228.1 42.9998C229.68 41.4679 231.583 40.3095 233.67 39.6098V39.5598Z" fill="#263238"/>
<path d="M239.82 56.5699C236.829 56.9017 233.811 56.9017 230.82 56.5699C233.81 56.2248 236.83 56.2248 239.82 56.5699V56.5699Z" fill="#263238"/>
<path d="M177.27 56C174.44 56.3333 171.58 56.3333 168.75 56C171.579 55.653 174.441 55.653 177.27 56V56Z" fill="#263238"/>
<path d="M181.69 68.6299C180.736 69.7277 179.656 70.7079 178.47 71.5499C177.398 72.5278 176.213 73.3738 174.94 74.0699C175.891 72.9737 176.969 71.9936 178.15 71.1499C179.229 70.1758 180.417 69.3302 181.69 68.6299V68.6299Z" fill="#263238"/>
<path d="M192.61 78.4199C191.98 79.7415 191.248 81.0121 190.42 82.2199C189.737 83.5161 188.958 84.7595 188.09 85.9399C188.51 84.5171 189.147 83.1678 189.98 81.9399C190.67 80.6381 191.557 79.4508 192.61 78.4199V78.4199Z" fill="#263238"/>
<path d="M205.24 91.0498C204.983 89.5611 204.896 88.0481 204.98 86.5398C204.896 85.0315 204.983 83.5185 205.24 82.0298C205.49 83.5192 205.574 85.0318 205.49 86.5398C205.574 88.0477 205.49 89.5604 205.24 91.0498Z" fill="#263238"/>
<path d="M224.68 84.9999C223.321 84.3806 222.077 83.5353 221 82.4999C219.819 81.5639 218.804 80.4346 218 79.1599C219.177 80.0982 220.302 81.0997 221.37 82.1599C222.524 83.0463 223.629 83.9944 224.68 84.9999V84.9999Z" fill="#263238"/>
<path d="M233.81 75.2198C232.702 74.4743 231.694 73.5905 230.81 72.5898C229.811 71.7073 228.93 70.6989 228.19 69.5898C229.295 70.3395 230.302 71.2229 231.19 72.2198C232.187 73.1046 233.068 74.1127 233.81 75.2198Z" fill="#263238"/>
<path d="M181.28 43.8399C180.294 43.2119 179.405 42.4439 178.64 41.5599C177.76 40.798 176.995 39.9121 176.37 38.9299C177.352 39.555 178.238 40.3197 179 41.1999C179.884 41.9648 180.652 42.8541 181.28 43.8399V43.8399Z" fill="#263238"/>
<path d="M192.54 31.9999C191.586 31.381 190.73 30.6225 190 29.7499C189.132 29.0062 188.38 28.1365 187.77 27.1699C188.737 27.7795 189.61 28.5275 190.36 29.3899C191.21 30.149 191.944 31.0283 192.54 31.9999V31.9999Z" fill="#263238"/>
<path d="M170.33 56.2198C170.33 46.2411 174.142 36.6392 180.986 29.3772C187.83 22.1151 197.189 17.7413 207.15 17.1498C206.38 17.1498 205.61 17.0698 204.83 17.0698C199.689 17.0698 194.598 18.0825 189.848 20.0499C185.098 22.0174 180.782 24.9012 177.147 28.5366C173.511 32.172 170.628 36.4879 168.66 41.2378C166.693 45.9877 165.68 51.0786 165.68 56.2198C165.68 61.3611 166.693 66.452 168.66 71.2019C170.628 75.9518 173.511 80.2676 177.147 83.9031C180.782 87.5385 185.098 90.4222 189.848 92.3897C194.598 94.3572 199.689 95.3698 204.83 95.3698C205.61 95.3698 206.38 95.3698 207.15 95.2998C197.189 94.7035 187.831 90.3268 180.988 83.0637C174.145 75.8005 170.333 66.1989 170.33 56.2198V56.2198Z" fill="#E0E0E0"/>
<path d="M170.53 406.19L96.4 405.28L131.71 445.36H220.25L170.53 406.19Z" fill="#F5F5F5"/>
<path d="M182.81 402.22L108.69 401.3L143.99 441.38H232.54L182.81 402.22Z" fill="#EBEBEB"/>
<path d="M162.39 395.13L88.27 394.22L123.57 434.3H212.12L162.39 395.13Z" fill="#EBEBEB"/>
<path d="M97.92 390.85L97.25 397.92L132.96 437.63L221.14 437.13V430.93L97.92 390.85Z" fill="#E0E0E0"/>
<path d="M172.04 391.76L97.92 390.85L133.22 430.93H221.77L172.04 391.76Z" fill="white"/>
<path d="M172 391.76L172.92 392.45L175.58 394.5L185.68 402.38L221.86 430.76C221.882 430.78 221.899 430.804 221.911 430.83C221.922 430.857 221.928 430.886 221.928 430.915C221.928 430.944 221.922 430.973 221.911 431C221.899 431.027 221.882 431.05 221.86 431.07C221.839 431.095 221.813 431.114 221.784 431.128C221.754 431.142 221.722 431.149 221.69 431.15H145.3H133.22C133.183 431.152 133.147 431.145 133.114 431.129C133.08 431.114 133.052 431.09 133.03 431.06L97.75 391C97.7282 390.98 97.7109 390.955 97.699 390.927C97.6872 390.9 97.681 390.87 97.681 390.84C97.681 390.81 97.6872 390.781 97.699 390.753C97.7109 390.725 97.7282 390.701 97.75 390.68C97.7906 390.642 97.8442 390.62 97.9 390.62L151.59 391.38L166.69 391.63L170.69 391.71H171.69H172.03C171.914 391.719 171.797 391.719 171.68 391.71H166.68L151.57 391.58L97.94 391.02L98.11 390.64L133.43 430.7L133.24 430.61H145.4H221.79L221.65 431L185.65 402.51L175.65 394.51L173.02 392.39C172.34 392 172 391.76 172 391.76Z" fill="#263238"/>
<path d="M197 421.34C197 421.49 183.45 421.6 166.74 421.6C150.03 421.6 136.47 421.49 136.47 421.34C136.47 421.19 150.02 421.08 166.74 421.08C183.46 421.08 197 421.2 197 421.34Z" fill="#263238"/>
<path d="M191.13 417.66C191.13 417.81 177.58 417.92 160.87 417.92C144.16 417.92 130.6 417.81 130.6 417.66C130.6 417.51 144.15 417.4 160.87 417.4C177.59 417.4 191.13 417.52 191.13 417.66Z" fill="#263238"/>
<path d="M187.93 413.65C187.93 413.79 174.38 413.91 157.66 413.91C140.94 413.91 127.39 413.79 127.39 413.65C127.39 413.51 140.94 413.39 157.66 413.39C174.38 413.39 187.93 413.5 187.93 413.65Z" fill="#263238"/>
<path d="M182.48 409.63C182.48 409.77 168.93 409.89 152.22 409.89C135.51 409.89 121.95 409.77 121.95 409.63C121.95 409.49 135.5 409.37 152.22 409.37C168.94 409.37 182.48 409.49 182.48 409.63Z" fill="#263238"/>
<path d="M178.25 405.28C178.25 405.42 164.7 405.54 147.99 405.54C131.28 405.54 117.72 405.42 117.72 405.28C117.72 405.14 131.27 405 148 405C164.73 405 178.25 405.14 178.25 405.28Z" fill="#263238"/>
<path d="M133 437.63C132.76 436.483 132.686 435.308 132.78 434.14C132.709 432.968 132.814 431.792 133.09 430.65C133.402 432.975 133.372 435.334 133 437.65V437.63Z" fill="#263238"/>
<path d="M48.77 388.23V348C48.7727 342.053 51.137 336.35 55.3431 332.146C59.5493 327.942 65.2529 325.58 71.2 325.58H194.2C200.142 325.588 205.838 327.953 210.038 332.157C214.237 336.36 216.597 342.058 216.6 348L216 388.23H48.77Z" fill="#455A64"/>
<path d="M48.77 388.23H39.66V354.17C39.66 352.961 40.1405 351.801 40.9956 350.946C41.8508 350.091 43.0106 349.61 44.22 349.61C45.4277 349.613 46.585 350.094 47.438 350.949C48.291 351.804 48.77 352.962 48.77 354.17V388.23Z" fill="#E0E0E0"/>
<path d="M48.77 388.23C48.77 388.23 48.77 388.14 48.77 387.97V387.26C48.77 386.6 48.77 385.7 48.77 384.56C48.77 382.2 48.77 378.85 48.68 374.73C48.59 370.61 48.68 365.68 48.61 360.24C48.61 358.87 48.61 357.48 48.61 356.05C48.61 355.35 48.61 354.6 48.61 353.91C48.5742 353.202 48.361 352.514 47.99 351.91C47.611 351.287 47.08 350.771 46.4467 350.41C45.8135 350.049 45.0988 349.855 44.3699 349.846C43.641 349.837 42.9218 350.013 42.2799 350.359C41.6379 350.704 41.0943 351.207 40.7 351.82C40.2235 352.576 39.9864 353.457 40.02 354.35V357.11C40.02 358.93 40.02 360.72 40.02 362.47C40.02 365.97 40.02 369.31 40.02 372.47C40.02 378.71 39.96 384.1 39.94 388.24L39.79 388.08L46.46 388.17H48.26H48.9C48.707 388.185 48.5131 388.185 48.32 388.17H46.56L39.79 388.25H39.63V388.09C39.63 383.95 39.63 378.56 39.56 372.32C39.56 369.19 39.56 365.85 39.56 362.32V354.2C39.5351 353.541 39.6458 352.884 39.8851 352.269C40.1244 351.655 40.4872 351.096 40.9512 350.627C41.4152 350.158 41.9705 349.79 42.5826 349.545C43.1948 349.299 43.8508 349.182 44.51 349.2C45.318 349.22 46.108 349.442 46.8071 349.848C47.5062 350.253 48.0919 350.828 48.51 351.52C48.9251 352.186 49.1626 352.947 49.2 353.73C49.2 354.49 49.2 355.2 49.2 355.92C49.2 357.36 49.2 358.77 49.2 360.15C49.2 365.64 49.15 370.58 49.13 374.75C49.11 378.92 49.06 382.19 49.04 384.55C49.04 385.66 49.04 386.55 49.04 387.18C48.9853 387.538 48.8948 387.89 48.77 388.23V388.23Z" fill="#263238"/>
<path d="M225.07 388.23H216V354.17C216 352.962 216.479 351.804 217.332 350.949C218.185 350.094 219.342 349.613 220.55 349.61V349.61C221.759 349.61 222.919 350.091 223.774 350.946C224.63 351.801 225.11 352.961 225.11 354.17L225.07 388.23Z" fill="#E0E0E0"/>
<path d="M67.68 388.23L69.87 325.53C69.87 325.53 79.98 317.27 94.36 325.53L83.63 388.23H67.68Z" fill="#263238"/>
<path d="M98.87 131.53L99.11 78.53L126.51 73.29L132 124C132 124 117.72 147.91 98.87 131.53Z" fill="#FFBF9D"/>
<path d="M99.14 79.4601C99.14 79.4601 96.14 75.6101 98.05 62.8701C99.96 50.1301 102.41 39.3201 104.68 36.0101L106.25 33.7401C106.25 33.7401 108.17 25.3701 111.83 19.6101C115.49 13.8501 117.59 10.5401 120.03 11.2401C122.47 11.9401 121.6 13.8501 120.9 15.7701C120.2 17.6901 113.8 30.9501 114.3 32.8701C114.8 34.7901 115.84 33.2201 116.37 31.6501C116.9 30.0801 121.25 20.1301 126.66 13.6501C132.07 7.17009 132.94 7.02009 135.38 7.20009C137.82 7.38009 137.38 10.0801 136.46 11.6701L133.66 16.8601C133.66 16.8601 141.14 5.55009 145.5 7.16009C149.86 8.77009 144.1 15.2201 144.1 15.2201C144.1 15.2201 138.7 22.2201 136.6 25.8601C134.5 29.5001 131.19 35.8001 131.19 35.8001C131.19 35.8001 140.44 26.3801 142.88 24.6401C145.32 22.9001 151.26 14.5201 155.09 18.0101C158.92 21.5001 140.09 38.2301 137.48 43.2101L134.86 47.0001L132.94 52.5801C134.263 50.9922 135.963 49.7612 137.885 48.9995C139.806 48.2379 141.888 47.9699 143.94 48.2201C151.27 48.9201 145.16 53.6301 143.24 55.3701C141.32 57.1101 137.14 61.3001 135.39 64.7901C133.64 68.2801 127.51 74.4401 124.75 76.0601C121.99 77.6801 115.68 79.4601 115.68 79.4601H99.14Z" fill="#FFBF9D"/>
<path d="M132.91 40.5402C132.84 40.6002 131.99 39.7002 130.38 38.5402C129.432 37.8604 128.429 37.2616 127.38 36.7502C126.093 36.1376 124.754 35.639 123.38 35.2602C122.01 34.9071 120.611 34.6762 119.2 34.5702C118.047 34.497 116.89 34.5171 115.74 34.6302C113.74 34.8302 112.58 35.1802 112.55 35.0902C112.805 34.9422 113.082 34.8342 113.37 34.7702C114.128 34.5367 114.904 34.3661 115.69 34.2602C116.859 34.0955 118.041 34.0386 119.22 34.0902C120.668 34.173 122.105 34.3974 123.51 34.7602C124.893 35.1438 126.233 35.6665 127.51 36.3202C128.566 36.8687 129.57 37.5113 130.51 38.2402C131.137 38.727 131.723 39.2656 132.26 39.8502C132.74 40.2702 132.94 40.5102 132.91 40.5402Z" fill="#FF9A6C"/>
<path d="M134.31 16.0001C134.38 16.0001 133.63 17.0001 132.56 18.6301C131.187 20.7649 129.935 22.9751 128.81 25.2501C127.47 27.9201 126.38 30.3901 125.58 32.1701C125.196 33.1485 124.734 34.0948 124.2 35.0001C124.443 33.9721 124.777 32.9681 125.2 32.0001C125.92 30.1801 126.96 27.6701 128.3 25.0001C129.428 22.7017 130.738 20.4979 132.22 18.4101C132.669 17.7765 133.15 17.1657 133.66 16.5801C134.07 16.1401 134.28 15.9201 134.31 16.0001Z" fill="#FF9A6C"/>
<path d="M134.58 50.3901C134.236 50.8938 133.848 51.3657 133.42 51.8001C132.56 52.8601 131.63 53.9801 130.62 55.2101C130.089 55.8514 129.485 56.4287 128.82 56.9301C128.249 57.3159 127.606 57.5845 126.93 57.7201C126.329 57.8885 125.701 57.9428 125.08 57.8801C125.648 57.6502 126.238 57.476 126.84 57.3601C127.451 57.1911 128.027 56.9134 128.54 56.5401C129.155 56.0379 129.721 55.4788 130.23 54.8701C131.33 53.5701 132.34 52.3501 133.15 51.5501C133.547 51.0741 134.032 50.68 134.58 50.3901V50.3901Z" fill="#FF9A6C"/>
<path d="M261 196C261.3 185.6 263.1 175.27 262.88 164.87C262.66 154.47 260.09 143.6 252.96 136.02C245.83 128.44 229.57 122.75 222.82 134.13V140.13C225.5 180.28 224.38 221.03 227.06 261.18C227.41 266.46 231.61 271.29 233.93 276.05C236.25 280.81 240.99 284.76 246.27 284.53C253.18 284.22 257.83 277.29 260.08 270.75C268.21 247 260.25 221 261 196Z" fill="#263238"/>
<path d="M239.25 141.32C238.336 138.464 236.987 135.765 235.25 133.32C233.4 130.99 230.62 129.19 227.64 129.24C226.937 129.205 226.237 129.351 225.606 129.665C224.976 129.978 224.437 130.448 224.04 131.03C223.36 132.25 224.04 134.16 225.44 134.29L225.69 134.59C228.29 137.83 230.95 141.03 233.69 144.16C234.331 144.993 235.125 145.696 236.03 146.23C236.49 146.496 237.016 146.626 237.547 146.604C238.078 146.583 238.592 146.412 239.03 146.11C240.35 145.07 239.87 142.94 239.25 141.32Z" fill="#455A64"/>
<path d="M243.31 152.38C235.25 138.14 222.77 128.59 206.68 125.55C197.61 123.83 193.52 125.08 186.68 125.72C179.84 126.36 173.3 128.85 168.44 133.72C162.66 139.51 157.49 146.22 155.23 154.08C152.91 162.16 150.58 170.29 149.78 178.66C148.98 187.03 149.78 195.73 153.5 203.27L173.89 210.54C185.43 212.93 197.13 215.33 208.89 214.63C220.65 213.93 232.68 209.74 240.44 200.87C251.2 188.56 251.38 166.63 243.31 152.38Z" fill="#263238"/>
<path d="M224.64 149L198.54 133L191.08 132.59C174.6 129.82 160.08 146.02 157.72 159.34C155.05 174.14 152.37 192.34 152.85 203.63C153.85 226.41 172.23 231.46 172.23 231.46C172.23 231.46 169.83 243.1 168.42 250.46L180.27 278.52L211.84 254.74L230.75 157.74C231.005 155.784 230.52 153.803 229.389 152.186C228.259 150.569 226.565 149.432 224.64 149Z" fill="#FFBF9D"/>
<path d="M186.67 204.23C186.694 203.075 186.296 201.952 185.55 201.07C184.872 200.249 183.943 199.674 182.905 199.434C181.868 199.193 180.78 199.301 179.81 199.74C178.788 200.28 177.929 201.083 177.321 202.065C176.713 203.048 176.378 204.175 176.35 205.33V205.33C176.713 206.091 177.236 206.764 177.883 207.304C178.531 207.845 179.287 208.239 180.1 208.46C180.353 208.529 180.61 208.582 180.87 208.62C182.178 208.841 183.522 208.559 184.63 207.83C185.222 207.425 185.713 206.89 186.067 206.266C186.42 205.642 186.626 204.946 186.67 204.23Z" fill="#FF9A6C"/>
<path d="M165 178.3C164.905 179.047 165.107 179.8 165.561 180.4C166.015 181 166.686 181.399 167.43 181.51C167.791 181.582 168.163 181.581 168.523 181.507C168.884 181.432 169.226 181.287 169.529 181.078C169.832 180.869 170.09 180.601 170.288 180.291C170.485 179.98 170.619 179.633 170.68 179.27C170.775 178.524 170.575 177.77 170.123 177.169C169.672 176.568 169.003 176.166 168.26 176.05C167.898 175.98 167.525 175.982 167.164 176.057C166.803 176.133 166.46 176.28 166.157 176.489C165.853 176.699 165.594 176.967 165.396 177.278C165.197 177.589 165.062 177.937 165 178.3V178.3Z" fill="#263238"/>
<path d="M161.46 167.68C161.77 168.1 164.13 166.74 167.22 167.11C170.31 167.48 172.39 169.28 172.77 168.94C172.95 168.79 172.66 168.08 171.77 167.24C170.541 166.165 169.013 165.491 167.39 165.31C165.784 165.118 164.158 165.443 162.75 166.24C161.71 166.86 161.31 167.5 161.46 167.68Z" fill="#263238"/>
<path d="M177 195C177 194.83 175.16 194.27 172.1 193.52C171.32 193.34 170.59 193.1 170.52 192.52C170.545 191.696 170.825 190.899 171.32 190.24L174.32 184.51C178.55 176.34 181.71 169.59 181.38 169.42C181.05 169.25 177.38 175.74 173.13 183.91C172.097 185.91 171.117 187.837 170.19 189.69C169.595 190.571 169.323 191.631 169.42 192.69C169.504 192.981 169.653 193.249 169.855 193.475C170.058 193.7 170.309 193.876 170.59 193.99C171.009 194.164 171.45 194.282 171.9 194.34C175 195 177 195.22 177 195Z" fill="#263238"/>
<path d="M172.2 231.5C182.708 232.888 193.395 231.33 203.07 227C203.07 227 193.3 241.57 171.16 236.88L172.2 231.5Z" fill="#FF9A6C"/>
<path d="M185.82 198.23C185.32 198.14 184.92 201.49 181.82 203.54C178.72 205.59 175.15 204.8 175.07 205.27C175 205.47 175.79 206.01 177.3 206.22C179.259 206.48 181.247 206.037 182.91 204.97C184.473 203.929 185.579 202.33 186 200.5C186.33 199.11 186.05 198.24 185.82 198.23Z" fill="#263238"/>
<path d="M164.35 157.16C164.78 157.97 167.2 157.74 169.93 158.29C172.66 158.84 174.87 159.83 175.56 159.22C175.87 158.92 175.65 158.15 174.78 157.29C173.578 156.212 172.102 155.486 170.515 155.191C168.927 154.897 167.289 155.045 165.78 155.62C164.63 156.12 164.16 156.76 164.35 157.16Z" fill="#263238"/>
<path d="M199.42 182.88C199.315 183.626 198.923 184.301 198.327 184.761C197.73 185.22 196.978 185.428 196.23 185.34C195.865 185.311 195.51 185.21 195.184 185.044C194.859 184.877 194.569 184.648 194.332 184.369C194.095 184.091 193.916 183.768 193.804 183.42C193.692 183.071 193.65 182.705 193.68 182.34C193.789 181.595 194.185 180.921 194.782 180.462C195.379 180.003 196.132 179.794 196.88 179.88C197.244 179.909 197.599 180.01 197.924 180.176C198.249 180.343 198.538 180.573 198.774 180.851C199.01 181.13 199.189 181.453 199.3 181.801C199.411 182.149 199.452 182.516 199.42 182.88V182.88Z" fill="#263238"/>
<path d="M203 173.62C202.59 173.94 200.67 172.01 197.6 171.54C194.53 171.07 192.04 172.26 191.77 171.83C191.63 171.64 192.1 171.03 193.19 170.46C194.66 169.744 196.317 169.503 197.93 169.77C199.527 170.009 201.005 170.752 202.15 171.89C203 172.76 203.24 173.48 203 173.62Z" fill="#263238"/>
<path d="M202.89 163.51C202.18 164.11 199.89 163.02 197.08 162.51C194.27 162 191.74 162.17 191.3 161.35C191.11 160.96 191.6 160.35 192.75 159.82C194.317 159.229 196.017 159.087 197.66 159.41C199.308 159.681 200.845 160.417 202.09 161.53C203 162.44 203.21 163.21 202.89 163.51Z" fill="#263238"/>
<path d="M220.54 194.4C220.74 192.73 223.12 189.03 224.79 188.96C229.26 188.79 237.14 190.06 235.92 201.22C234.25 216.48 219.27 211.66 219.29 211.22C219.31 210.78 219.86 200.15 220.54 194.4Z" fill="#FFBF9D"/>
<path d="M224.11 206.1C224.19 206.1 224.36 206.32 224.78 206.57C225.388 206.913 226.105 207.006 226.78 206.83C228.45 206.42 230.09 204.01 230.47 201.26C230.649 199.958 230.537 198.633 230.14 197.38C230.05 196.887 229.841 196.423 229.531 196.029C229.221 195.635 228.819 195.323 228.36 195.12C228.064 195.007 227.737 194.999 227.437 195.1C227.136 195.2 226.879 195.402 226.71 195.67C226.46 196.08 226.53 196.39 226.44 196.41C226.35 196.43 226.14 196.12 226.34 195.5C226.466 195.132 226.712 194.819 227.04 194.61C227.495 194.343 228.036 194.26 228.55 194.38C229.162 194.574 229.715 194.921 230.156 195.389C230.597 195.856 230.911 196.428 231.07 197.05C231.572 198.445 231.73 199.941 231.53 201.41C231.09 204.47 229.2 207.18 226.93 207.57C226.507 207.647 226.072 207.626 225.658 207.51C225.244 207.394 224.862 207.185 224.54 206.9C224.1 206.48 224.06 206.13 224.11 206.1Z" fill="#FF9A6C"/>
<path d="M225.4 189.11L220.88 192.43C207.04 173.72 181.5 128.43 182.88 131.13C182.88 131.13 195.03 128.41 206.99 132.63C218.95 136.85 241.25 147.03 238.39 161.5C235.53 175.97 225.4 189.11 225.4 189.11Z" fill="#263238"/>
<path d="M247.91 189.55C247.921 189.245 247.894 188.939 247.83 188.64C247.701 187.77 247.493 186.913 247.21 186.08C246.136 183.014 244.402 180.222 242.13 177.9C238.749 174.484 234.805 171.676 230.47 169.6C225.7 167.08 220.23 164.83 215.06 161.47C210.156 158.364 205.632 154.696 201.58 150.54C198.271 147.151 195.276 143.469 192.63 139.54C190.854 136.878 189.238 134.113 187.79 131.26C187.31 130.31 186.93 129.53 186.63 128.92C186.512 128.637 186.361 128.368 186.18 128.12C186.25 128.42 186.351 128.711 186.48 128.99C186.71 129.54 187.03 130.37 187.48 131.4C188.839 134.317 190.396 137.137 192.14 139.84C194.736 143.857 197.713 147.614 201.03 151.06C205.095 155.286 209.654 159.006 214.61 162.14C219.85 165.54 225.37 167.79 230.11 170.25C234.387 172.255 238.301 174.959 241.69 178.25C243.957 180.497 245.731 183.191 246.9 186.16C247.7 188.3 247.83 189.57 247.91 189.55Z" fill="#455A64"/>
<path d="M243.11 191.18C243.355 190.057 243.355 188.893 243.11 187.77C242.471 184.691 240.92 181.876 238.66 179.69C235.91 176.79 231.66 174.56 226.91 172.58C221.71 170.579 216.747 168.01 212.11 164.92C207.513 161.785 203.324 158.09 199.64 153.92C196.616 150.509 193.937 146.807 191.64 142.87C190.119 140.204 188.76 137.449 187.57 134.62L186.66 132.28C186.564 132.002 186.44 131.734 186.29 131.48C186.326 131.772 186.4 132.057 186.51 132.33C186.71 132.96 186.97 133.75 187.29 134.73C188.37 137.625 189.663 140.436 191.16 143.14C196.142 152.115 203.151 159.803 211.63 165.59C216.322 168.712 221.354 171.289 226.63 173.27C231.38 175.21 235.55 177.34 238.27 180.1C240.501 182.19 242.078 184.882 242.81 187.85C243.016 188.948 243.116 190.063 243.11 191.18V191.18Z" fill="#455A64"/>
<path d="M220.5 214.59C220.5 214.49 221.83 214.54 224.17 214.34C227.464 213.962 230.629 212.844 233.43 211.07C237.542 208.364 240.941 204.708 243.34 200.41C246.368 195.187 248.491 189.491 249.62 183.56C250.832 177.646 250.747 171.538 249.37 165.66C248.222 160.864 246.286 156.292 243.64 152.13C239.08 145.02 234.82 141.74 235.03 141.56C235.309 141.713 235.565 141.905 235.79 142.13C236.25 142.55 236.98 143.13 237.79 143.97C240.202 146.327 242.354 148.935 244.21 151.75C246.985 155.933 249.014 160.565 250.21 165.44C250.894 168.33 251.29 171.282 251.39 174.25C251.443 177.437 251.161 180.621 250.55 183.75C249.405 189.796 247.215 195.596 244.08 200.89C241.57 205.28 238.019 208.986 233.74 211.68C230.827 213.437 227.535 214.466 224.14 214.68C223.224 214.745 222.306 214.745 221.39 214.68C221.091 214.691 220.791 214.66 220.5 214.59V214.59Z" fill="#455A64"/>
<path d="M238.8 326.38C239.65 327.43 249.3 358.31 249.3 358.31L195 367.37L196.65 393.17L276.65 392.05C276.65 392.05 293.5 385.05 289.58 365.66C286.2 348.94 267.99 291.4 266.58 285.88C265.17 280.36 253.03 260.67 239.84 256.47L226.45 298L238.8 326.38Z" fill="#F37E11"/>
<path d="M89.35 388C89.35 388 112.53 359.95 115.08 348.93C117.63 337.91 111.86 268.31 111.86 268.31L153.06 231.53L169.36 244.37C169.36 244.37 174.36 265.29 186.16 266.49C197.96 267.69 212.54 251.28 212.54 251.28C212.54 251.28 232.31 251.38 245.35 258.88L243.27 301.94C240.53 320.82 237.78 338.94 234.08 346.74L233.78 348.93L214 387.52L89.35 388Z" fill="#F37E11"/>
<path d="M111.85 269.15C111.85 269.15 112 254.83 112 253.56C112 252.29 102.77 206.16 100.54 188.03C98.31 169.9 99 124.09 99 124.09L131.45 118.09L140.38 186.77L148.38 210.71L153.81 234.71L149.56 242.13L111.85 269.15Z" fill="#F37E11"/>
<path d="M116.46 208.72C116.514 208.871 116.541 209.03 116.54 209.19C116.54 209.55 116.63 209.99 116.68 210.52C116.78 211.77 116.92 213.43 117.09 215.45C117.563 220.873 117.716 226.319 117.55 231.76C117.265 237.208 116.376 242.608 114.9 247.86C114.31 249.86 113.82 251.48 113.42 252.58L112.96 253.85C112.92 254.003 112.856 254.148 112.77 254.28C112.785 254.121 112.815 253.964 112.86 253.81L113.22 252.52C113.56 251.4 114.01 249.78 114.54 247.76C115.905 242.524 116.736 237.164 117.02 231.76C117.31 225.42 116.92 219.67 116.72 215.5C116.62 213.5 116.54 211.82 116.48 210.57C116.48 210.04 116.48 209.57 116.48 209.22C116.442 209.056 116.435 208.887 116.46 208.72V208.72Z" fill="#263238"/>
<path d="M243.27 299.31C243.27 299.518 243.25 299.726 243.21 299.93L242.94 301.67C242.73 303.26 242.43 305.44 242.07 308.11C241.33 313.54 240.33 321.11 238.72 329.29C237.467 336.345 235.583 343.273 233.09 349.99C232.83 350.63 232.62 351.25 232.36 351.81L231.62 353.4L230.97 354.78C230.77 355.2 230.53 355.56 230.34 355.89L229.43 357.41C229.336 357.595 229.218 357.766 229.08 357.92C229.152 357.727 229.239 357.54 229.34 357.36L230.16 355.79C230.33 355.45 230.56 355.09 230.75 354.67C230.94 354.25 231.14 353.77 231.36 353.28L232.06 351.68C232.3 351.12 232.5 350.5 232.75 349.86C235.128 343.13 236.955 336.217 238.21 329.19C239.81 320.99 240.87 313.48 241.7 308.06C242.11 305.34 242.47 303.15 242.7 301.64C242.84 300.88 242.98 300.3 243.06 299.91C243.103 299.702 243.174 299.5 243.27 299.31V299.31Z" fill="#263238"/>
<path d="M265.52 373C264.765 372.213 264.07 371.37 263.44 370.48C261.875 368.378 260.182 366.374 258.37 364.48C254.04 360.12 249.18 358.48 249.3 358.26C249.42 358.04 249.61 358.32 250.14 358.51C250.89 358.806 251.624 359.14 252.34 359.51C254.701 360.712 256.86 362.274 258.74 364.14C260.574 366.034 262.246 368.078 263.74 370.25C264.406 371.117 265.001 372.037 265.52 373V373Z" fill="#263238"/>
<path d="M196.69 393.17C196.643 393.011 196.616 392.846 196.61 392.68C196.61 392.32 196.54 391.85 196.48 391.26C196.39 389.98 196.25 388.18 196.08 385.94C195.76 381.33 195.31 374.94 194.8 367.38V367.16H195.02L209.4 364.74L237.61 360.1L246.17 358.76L248.5 358.42C248.77 358.369 249.045 358.342 249.32 358.34C249.058 358.418 248.79 358.478 248.52 358.52L246.2 358.96L237.67 360.47L209.48 365.25L195.1 367.63L195.3 367.38C195.74 374.91 196.12 381.38 196.39 385.95C196.51 388.2 196.6 389.95 196.66 391.28C196.66 391.87 196.66 392.34 196.71 392.7C196.715 392.857 196.708 393.014 196.69 393.17Z" fill="#263238"/>
<path d="M186.48 332.8C186.48 332.8 186.35 332.95 186.06 333.19L184.78 334.24L183.84 334.98C183.49 335.24 183.09 335.49 182.67 335.78C181.723 336.444 180.741 337.058 179.73 337.62L177.97 338.62C177.36 338.96 176.68 339.23 175.97 339.56C174.61 340.24 173.09 340.76 171.5 341.36C164.494 343.766 157.041 344.583 149.68 343.75C148 343.51 146.39 343.32 144.92 342.96C144.19 342.78 143.47 342.66 142.79 342.47L140.86 341.89C139.753 341.563 138.665 341.176 137.6 340.73C137.12 340.54 136.68 340.38 136.28 340.2L135.2 339.68L133.73 338.94C133.554 338.86 133.387 338.763 133.23 338.65C133.421 338.688 133.606 338.752 133.78 338.84L135.29 339.49L136.37 339.97C136.78 340.14 137.23 340.28 137.7 340.46C138.7 340.79 139.7 341.23 140.97 341.54L142.89 342.08C143.56 342.26 144.28 342.37 145.01 342.53C146.57 342.856 148.145 343.103 149.73 343.27C153.368 343.63 157.032 343.63 160.67 343.27C164.294 342.838 167.868 342.054 171.34 340.93C172.92 340.35 174.44 339.84 175.79 339.18C176.47 338.87 177.15 338.6 177.79 338.28L179.55 337.34C180.7 336.77 181.64 336.11 182.55 335.58C182.97 335.3 183.38 335.06 183.74 334.82L184.74 334.11L186.07 333.11C186.199 332.996 186.336 332.893 186.48 332.8V332.8Z" fill="#263238"/>
<path d="M112.6 391.88C112.476 391.629 112.406 391.354 112.395 391.074C112.384 390.795 112.432 390.516 112.536 390.255C112.64 389.995 112.797 389.76 112.997 389.564C113.198 389.368 113.437 389.217 113.7 389.12C119.96 386.93 142.3 379.12 143.78 378.59C145.49 378.02 179.78 371.38 179.78 371.38L195.27 370.52L196.59 391.29H181.88C179.972 391.861 178.023 392.282 176.05 392.55C173.86 392.76 140.96 394.48 132.23 394.11C131.683 394.083 131.153 393.915 130.69 393.623C130.227 393.33 129.848 392.923 129.59 392.44V392.44C129.59 392.44 124.1 394.62 120.66 394.16C117.22 393.7 117.23 393.01 117.23 393.01C117.23 393.01 113.91 394.32 112.6 391.88Z" fill="#FFBF9D"/>
<path d="M155.61 385C155.305 385.221 154.968 385.393 154.61 385.51C153.682 385.889 152.726 386.193 151.75 386.42C150.53 386.72 149.05 386.98 147.46 387.42C146.66 387.62 145.86 387.93 144.97 388.19C144.08 388.45 143.18 388.68 142.24 388.88C140.35 389.29 138.57 389.61 136.92 389.88C135.27 390.15 133.76 390.18 132.55 390.44C131.591 390.538 130.688 390.937 129.97 391.58C129.869 391.724 129.801 391.888 129.772 392.061C129.743 392.234 129.752 392.411 129.8 392.58C129.8 392.58 129.71 392.51 129.65 392.32C129.592 392.034 129.646 391.737 129.8 391.49C130.497 390.723 131.443 390.227 132.47 390.09C133.71 389.77 135.22 389.68 136.84 389.41C138.46 389.14 140.27 388.74 142.13 388.34C143.06 388.14 143.97 387.92 144.83 387.67C145.69 387.42 146.52 387.12 147.34 386.93C148.97 386.52 150.45 386.3 151.67 386.05C153 385.767 154.315 385.417 155.61 385Z" fill="#FF9A6C"/>
<path d="M148.73 380.74C148.304 380.93 147.862 381.084 147.41 381.2L143.75 382.27C140.67 383.17 136.4 384.41 131.75 385.84C127.1 387.27 122.82 388.6 119.75 389.57C119.069 389.746 118.43 390.055 117.87 390.48C117.669 390.643 117.504 390.845 117.384 391.073C117.263 391.302 117.191 391.552 117.17 391.81C117.149 392.032 117.176 392.257 117.251 392.467C117.325 392.678 117.444 392.87 117.6 393.03C117.6 393.03 117.47 393.03 117.3 392.81C117.063 392.533 116.945 392.174 116.97 391.81C116.974 391.519 117.038 391.232 117.159 390.967C117.279 390.702 117.453 390.465 117.67 390.27C118.263 389.806 118.943 389.466 119.67 389.27C122.67 388.21 126.94 386.82 131.67 385.39C136.4 383.96 140.67 382.78 143.77 381.97C145.32 381.56 146.59 381.25 147.47 381.05C147.879 380.906 148.301 380.802 148.73 380.74V380.74Z" fill="#FF9A6C"/>
</svg>
